<?xml version="1.0" standalone="no"?>
<!DOCTYPE svg PUBLIC "-//W3C//DTD SVG 20010904//EN"
 "http://www.w3.org/TR/2001/REC-SVG-20010904/DTD/svg10.dtd">
<svg version="1.0" xmlns="http://www.w3.org/2000/svg"
 width="512.000000pt" height="512.000000pt" viewBox="0 0 512.000000 512.000000"
 preserveAspectRatio="xMidYMid meet">

<g transform="translate(0.000000,512.000000) scale(0.100000,-0.100000)"
fill="#000000" stroke="none">
<path d="M906 4937 c-21 -21 -25 -38 -32 -123 -15 -198 21 -558 80 -799 60
-244 174 -513 299 -703 291 -443 720 -737 1252 -857 61 -14 121 -25 135 -25
61 -1 51 -17 -44 -74 -53 -31 -100 -65 -106 -76 -17 -32 -11 -66 16 -95 20
-22 31 -26 58 -22 17 3 127 62 243 133 221 132 244 153 228 205 -8 24 -312
410 -347 442 -28 24 -70 21 -102 -8 -47 -44 -38 -68 84 -220 61 -76 110 -139
110 -141 0 -6 -88 7 -217 32 -357 70 -677 238 -928 489 -239 239 -428 585
-526 964 -60 231 -72 333 -74 610 -2 251 -2 255 -25 273 -31 25 -76 23 -104
-5z"/>
<path d="M624 3506 c-95 -30 -181 -118 -210 -214 -12 -37 -14 -292 -14 -1447
0 -1436 0 -1423 35 -1507 7 -17 -2 -18 -109 -18 -111 0 -118 -1 -141 -25 -33
-32 -33 -78 0 -110 l24 -25 2338 0 c1286 0 2348 3 2361 6 31 9 55 57 47 95
-11 50 -36 59 -163 59 -87 0 -112 3 -108 13 35 83 37 114 34 450 l-3 334 -35
69 c-25 49 -49 79 -84 105 -90 68 -105 70 -537 67 l-384 -3 -50 -24 c-63 -32
-124 -93 -156 -156 -24 -50 -24 -52 -27 -388 -3 -340 -1 -371 34 -454 4 -10
-31 -13 -156 -13 -125 0 -160 3 -156 13 36 87 37 94 34 809 l-3 695 -35 69
c-25 49 -49 79 -84 105 -90 68 -105 70 -537 67 l-384 -3 -50 -24 c-63 -32
-124 -93 -156 -156 l-24 -50 -3 -699 c-3 -719 -2 -726 34 -813 4 -10 -31 -13
-156 -13 -151 0 -162 1 -155 18 35 84 35 81 35 1249 l0 1144 -25 24 c-15 16
-36 25 -55 25 -19 0 -40 -9 -55 -25 l-25 -24 0 -1142 c0 -1270 5 -1181 -68
-1237 l-35 -27 -378 0 c-366 0 -378 1 -405 21 -15 11 -37 33 -48 48 -21 27
-21 29 -21 1446 0 1417 0 1419 21 1446 49 66 59 69 259 74 162 4 185 7 204 24
32 29 29 88 -5 115 -25 20 -39 21 -203 20 -114 0 -191 -5 -217 -13z m2320
-1600 c18 -8 46 -31 62 -52 l29 -37 3 -684 c3 -763 6 -726 -66 -781 l-35 -27
-378 0 c-366 0 -378 1 -405 21 -15 11 -37 33 -48 48 -21 27 -21 39 -24 699 -2
370 0 686 3 704 7 40 49 91 90 109 45 20 722 20 769 0z m1520 -720 c18 -8 46
-31 62 -52 l29 -37 0 -337 0 -337 -27 -35 c-52 -69 -55 -69 -462 -66 -350 3
-366 4 -392 24 -15 11 -37 33 -48 48 -20 26 -21 42 -24 339 -2 172 0 326 3
344 7 40 49 91 90 109 45 20 722 20 769 0z"/>
<path d="M3938 3350 c-342 -58 -612 -304 -710 -647 -31 -108 -31 -321 0 -435
47 -173 102 -275 211 -390 171 -181 380 -268 641 -268 187 0 348 46 491 139
341 224 478 685 318 1073 -86 208 -277 396 -487 477 -141 54 -325 74 -464 51z
m320 -175 c232 -54 420 -225 497 -453 71 -212 52 -422 -56 -604 -209 -355
-668 -464 -1011 -239 -138 90 -242 227 -296 389 -36 106 -37 289 -4 405 46
162 136 296 256 382 181 129 394 171 614 120z"/>
<path d="M4025 3015 c-20 -20 -25 -34 -25 -78 l0 -55 -45 -6 c-182 -28 -257
-271 -124 -405 55 -55 113 -71 251 -71 102 0 110 -1 133 -25 27 -26 31 -51 14
-88 -19 -41 -48 -47 -240 -47 -178 0 -180 0 -204 -25 -33 -32 -33 -78 0 -110
22 -23 32 -25 120 -25 l95 0 0 -55 c0 -85 47 -124 113 -94 31 14 47 48 47 103
l0 43 56 12 c107 24 177 116 178 232 0 87 -39 160 -109 204 -46 28 -54 30
-187 35 -132 5 -141 6 -159 29 -26 32 -24 77 6 106 24 25 27 25 202 25 98 0
188 3 201 6 31 9 55 57 47 95 -11 48 -38 59 -142 59 l-93 0 0 55 c0 67 -29
105 -80 105 -19 0 -40 -9 -55 -25z"/>
</g>
</svg>
