<!-- Generated by IcoMoon.io -->
<svg version="1.1" xmlns="http://www.w3.org/2000/svg" width="32" height="32" viewBox="0 0 32 32">
<title>diamond</title>
<path d="M16.051 29.99c-0.005 0-0.012 0-0.018 0-0.101 0-0.196-0.024-0.28-0.066l0.004 0.002c-0.132-0.070-0.235-0.181-0.293-0.316l-0.002-0.004-15.322-19.597c-0.083-0.107-0.133-0.243-0.133-0.39s0.050-0.284 0.134-0.392l-0.001 0.001 5.35-6.4c0.086-0.13 0.215-0.226 0.367-0.268l0.005-0.001h20.659c0.134 0.034 0.248 0.106 0.332 0.204l0.001 0.001 4.979 6.4c0.075 0.103 0.12 0.233 0.12 0.373 0 0.027-0.002 0.053-0.005 0.078l0-0.003c-0.020 0.118-0.070 0.223-0.142 0.308l0.001-0.001-15.36 19.738c-0.080 0.161-0.221 0.281-0.392 0.332l-0.005 0.001zM11.149 10.24l4.902 16.806 4.89-16.806zM22.272 10.24l-4.672 16.064 12.454-16.064zM1.958 10.24l12.544 16.064-4.685-16.064zM23.040 8.96h7.014l-3.661-4.698zM11.738 8.96h8.614l-4.301-4.8zM2.010 8.96h7.091l-3.162-4.698zM17.485 3.84l4.275 4.736 3.366-4.736zM7.245 3.84l3.123 4.723 4.25-4.723z"></path>
</svg>
