<!-- Generated by IcoMoon.io -->
<svg version="1.1" xmlns="http://www.w3.org/2000/svg" width="32" height="32" viewBox="0 0 32 32">
<title>gift</title>
<path d="M28.78 8.685h-6.5c0.448-0.394 0.805-0.881 1.044-1.427s0.358-1.138 0.344-1.735-0.156-1.183-0.42-1.718c-0.264-0.535-0.641-1.006-1.106-1.38s-1.006-0.641-1.585-0.784-1.183-0.157-1.768-0.042c-0.585 0.115-1.138 0.357-1.62 0.709s-0.881 0.804-1.17 1.326c-0.286-0.527-0.685-0.984-1.167-1.339s-1.037-0.601-1.625-0.718c-0.588-0.117-1.194-0.104-1.776 0.038s-1.126 0.412-1.592 0.788c-0.467 0.376-0.845 0.85-1.108 1.389s-0.405 1.128-0.415 1.727c-0.010 0.599 0.112 1.193 0.357 1.74s0.607 1.033 1.061 1.425h-6.5c-0.202 0-0.401 0.040-0.587 0.117s-0.355 0.19-0.498 0.333c-0.143 0.143-0.256 0.312-0.333 0.498s-0.117 0.386-0.117 0.587v3c0.001 0.407 0.163 0.796 0.451 1.084s0.677 0.45 1.084 0.451h0.5v14.21c0 0.202 0.040 0.402 0.117 0.589s0.191 0.356 0.334 0.499 0.313 0.256 0.5 0.332c0.187 0.077 0.387 0.116 0.589 0.115h21.45c0.407 0 0.798-0.162 1.085-0.45s0.45-0.678 0.45-1.085v-14.225h0.5c0.407-0.001 0.796-0.163 1.084-0.451s0.45-0.677 0.451-1.084v-3c-0.004-0.401-0.165-0.785-0.448-1.069s-0.666-0.446-1.067-0.451v0zM13.2 9.685h5.6v4.055h-5.6v-4.055zM19.59 2.5c0.417-0.017 0.832 0.051 1.222 0.199s0.746 0.373 1.046 0.662c0.301 0.289 0.54 0.635 0.703 1.019s0.248 0.796 0.248 1.213c0 0.417-0.084 0.83-0.248 1.213s-0.403 0.73-0.703 1.019c-0.301 0.289-0.657 0.514-1.046 0.662s-0.805 0.215-1.222 0.199h-3.090v-3.095c0-0.406 0.080-0.808 0.235-1.183s0.383-0.716 0.67-1.002 0.628-0.515 1.002-0.67c0.375-0.155 0.777-0.235 1.183-0.235v0zM9.315 5.59c0.032-0.799 0.372-1.554 0.948-2.108s1.345-0.863 2.144-0.863 1.568 0.309 2.144 0.863c0.576 0.554 0.916 1.309 0.948 2.108v3.095h-3.090c-0.82-0.001-1.607-0.328-2.187-0.908s-0.907-1.367-0.908-2.187v0zM2.685 13.205v-3c0-0.142 0.056-0.278 0.157-0.378s0.236-0.157 0.378-0.157h9v4.055h-9c-0.139 0-0.273-0.054-0.373-0.151s-0.158-0.229-0.162-0.369v0zM4.74 28.965v-14.225h7.46v14.76h-6.925c-0.142 0-0.278-0.056-0.378-0.157s-0.157-0.236-0.157-0.378v0zM13.2 29.5v-14.76h5.6v14.76h-5.6zM27.26 28.965c0 0.142-0.056 0.278-0.157 0.378s-0.236 0.157-0.378 0.157h-6.925v-14.76h7.46v14.225zM29.315 13.205c0 0.142-0.056 0.278-0.157 0.378s-0.236 0.157-0.378 0.157h-9v-4.055h9c0.142 0 0.278 0.056 0.378 0.157s0.157 0.236 0.157 0.378v2.985z"></path>
</svg>
