<!-- Generated by IcoMoon.io -->
<svg version="1.1" xmlns="http://www.w3.org/2000/svg" width="32" height="32" viewBox="0 0 32 32">
<title>mechanism</title>
<path d="M12.766 22.214h-2.418c-0.206 0-0.375-0.169-0.431-0.337l-0.731-3.018c-0.487-0.187-0.994-0.394-1.481-0.675l-2.493 1.575c-0.187 0.112-0.412 0.094-0.581-0.038l-1.706-1.725c-0.169-0.15-0.187-0.394-0.075-0.544l1.612-2.643c-0.244-0.469-0.45-0.994-0.581-1.537l-2.849-0.656c-0.225-0.056-0.375-0.225-0.375-0.45v-2.418c0-0.206 0.131-0.375 0.337-0.431l3.037-0.75c0.187-0.525 0.431-1.012 0.656-1.462l-1.556-2.512c-0.112-0.187-0.075-0.431 0.075-0.581l1.725-1.725c0.15-0.169 0.375-0.206 0.562-0.094l2.681 1.631c0.487-0.225 0.994-0.431 1.5-0.562l0.675-2.887c0.056-0.206 0.244-0.375 0.45-0.375h2.418c0.206 0 0.394 0.169 0.45 0.337l0.712 3.056c0.506 0.15 0.994 0.394 1.481 0.675l2.512-1.593c0.15-0.094 0.375-0.075 0.544 0.075l1.706 1.725c0.169 0.15 0.187 0.394 0.075 0.544l-1.612 2.643c0.244 0.469 0.45 0.994 0.581 1.537l2.849 0.675c0.225 0.056 0.375 0.244 0.375 0.45v2.381c0 0.225-0.131 0.394-0.337 0.45l-3.037 0.75c-0.187 0.525-0.431 1.012-0.694 1.481l1.575 2.493c0.094 0.187 0.075 0.431-0.056 0.581l-1.725 1.687c-0.15 0.15-0.375 0.187-0.544 0.075l-2.699-1.631c-0.469 0.225-0.994 0.431-1.5 0.562l-0.675 2.887c-0.037 0.206-0.225 0.375-0.431 0.375zM10.685 21.296h1.706l0.675-2.812c0.019-0.15 0.15-0.281 0.337-0.337 0.619-0.15 1.237-0.375 1.781-0.694 0.131-0.075 0.319-0.075 0.45 0.019l2.568 1.575 1.2-1.2-1.5-2.418c-0.112-0.15-0.112-0.337 0-0.469 0.337-0.525 0.581-1.125 0.806-1.762 0.038-0.169 0.169-0.262 0.337-0.319l2.924-0.731v-1.687l-2.774-0.656c-0.187-0.056-0.319-0.169-0.337-0.337-0.15-0.637-0.375-1.237-0.675-1.781-0.075-0.169-0.075-0.319 0-0.469l1.556-2.587-1.2-1.2-2.437 1.537c-0.15 0.112-0.337 0.112-0.469 0-0.6-0.356-1.2-0.619-1.762-0.769-0.169-0.056-0.3-0.187-0.319-0.337l-0.731-2.943h-1.687l-0.656 2.812c-0.037 0.169-0.169 0.3-0.337 0.337-0.6 0.131-1.219 0.356-1.781 0.675-0.131 0.075-0.319 0.075-0.45-0.037l-2.568-1.556-1.2 1.2 1.5 2.437c0.112 0.169 0.094 0.337 0 0.506-0.3 0.506-0.6 1.087-0.769 1.743-0.056 0.15-0.187 0.262-0.337 0.3l-2.943 0.712v1.687l2.774 0.619c0.187 0.037 0.319 0.187 0.337 0.337 0.169 0.656 0.375 1.256 0.675 1.8 0.094 0.15 0.094 0.319 0 0.469l-1.556 2.568 1.2 1.2 2.418-1.537c0.15-0.094 0.337-0.094 0.469 0 0.6 0.375 1.162 0.619 1.762 0.806 0.169 0.056 0.262 0.187 0.319 0.337l0.694 2.962z"></path>
<path d="M11.754 15.297c-2.212 0-3.993-1.8-3.993-4.012s1.781-3.993 3.993-3.993c2.212 0 4.012 1.781 4.012 3.993s-1.8 4.012-4.012 4.012zM11.754 8.173c-1.706 0-3.093 1.406-3.093 3.093s1.406 3.093 3.093 3.093c1.725 0 3.093-1.406 3.093-3.093s-1.368-3.093-3.093-3.093z"></path>
<path d="M24.97 31.981h-1.481c-0.206 0-0.394-0.15-0.45-0.337l-0.412-1.762c-0.281-0.112-0.544-0.206-0.787-0.337l-1.443 0.9c-0.187 0.112-0.412 0.094-0.581-0.075l-1.031-1.031c-0.169-0.169-0.187-0.375-0.056-0.544l0.937-1.575c-0.112-0.244-0.206-0.506-0.281-0.769l-1.706-0.394c-0.206-0.056-0.356-0.225-0.356-0.45v-1.481c0-0.206 0.15-0.375 0.337-0.431l1.762-0.412c0.094-0.262 0.206-0.525 0.337-0.787l-0.9-1.425c-0.112-0.187-0.075-0.412 0.056-0.581l1.031-1.031c0.15-0.169 0.375-0.187 0.544-0.075l1.556 0.937c0.262-0.112 0.525-0.225 0.787-0.3l0.394-1.687c0.056-0.206 0.225-0.356 0.431-0.356h1.5c0.206 0 0.375 0.15 0.431 0.337l0.412 1.762c0.262 0.112 0.525 0.206 0.75 0.337l1.462-0.9c0.187-0.112 0.412-0.094 0.581 0.038l1.031 1.050c0.15 0.15 0.187 0.394 0.075 0.562l-0.956 1.537c0.131 0.262 0.225 0.525 0.281 0.787l1.743 0.469c0.206 0.038 0.375 0.225 0.375 0.431v1.481c0 0.206-0.169 0.394-0.337 0.45l-1.781 0.412c-0.094 0.262-0.206 0.525-0.337 0.75l0.919 1.462c0.094 0.187 0.075 0.412-0.056 0.581l-1.031 1.031c-0.169 0.15-0.394 0.187-0.581 0.075l-1.537-0.956c-0.262 0.131-0.525 0.225-0.806 0.3l-0.356 1.668c-0.075 0.187-0.262 0.337-0.469 0.337zM23.845 31.081h0.75l0.375-1.556c0.019-0.187 0.187-0.319 0.337-0.356 0.394-0.075 0.731-0.206 1.069-0.412 0.15-0.075 0.3-0.075 0.469 0l1.443 0.881 0.544-0.544-0.844-1.368c-0.112-0.169-0.112-0.337 0-0.506 0.206-0.3 0.356-0.637 0.469-1.031 0.038-0.15 0.169-0.262 0.337-0.319l1.65-0.375v-0.769l-1.575-0.356c-0.187-0.056-0.319-0.187-0.337-0.337-0.075-0.375-0.206-0.731-0.412-1.069-0.094-0.15-0.094-0.319 0-0.469l0.881-1.462-0.544-0.544-1.387 0.862c-0.15 0.112-0.337 0.112-0.487 0-0.319-0.206-0.656-0.356-1.050-0.469-0.15-0.056-0.262-0.187-0.3-0.337l-0.394-1.668h-0.75l-0.375 1.593c-0.056 0.187-0.169 0.319-0.337 0.337-0.356 0.075-0.694 0.206-1.069 0.394-0.131 0.075-0.3 0.038-0.431-0.038l-1.481-0.881-0.544 0.544 0.844 1.35c0.112 0.169 0.112 0.337 0 0.506-0.206 0.337-0.356 0.694-0.469 1.031-0.038 0.169-0.169 0.281-0.337 0.319l-1.65 0.394v0.825l1.575 0.356c0.187 0.056 0.319 0.187 0.337 0.337 0.075 0.375 0.206 0.712 0.394 1.069 0.075 0.131 0.056 0.319-0.019 0.45l-0.9 1.462 0.525 0.544 1.387-0.862c0.15-0.112 0.337-0.112 0.487 0 0.319 0.187 0.656 0.337 1.069 0.469 0.15 0.056 0.262 0.187 0.319 0.337l0.431 1.668z"></path>
<path d="M24.352 27.745c-1.462 0-2.643-1.2-2.643-2.643 0-1.462 1.181-2.662 2.643-2.662 1.443 0 2.643 1.2 2.643 2.662 0 1.481-1.2 2.643-2.643 2.643zM24.352 23.377c-0.937 0-1.725 0.787-1.725 1.743s0.787 1.743 1.725 1.743c0.956 0 1.725-0.787 1.725-1.743s-0.769-1.743-1.725-1.743z"></path>
</svg>
