<?xml version="1.0" encoding="utf-8"?>
<!-- Generator: Adobe Illustrator 24.2.1, SVG Export Plug-In . SVG Version: 6.00 Build 0)  -->
<!DOCTYPE svg PUBLIC "-//W3C//DTD SVG 1.1//EN" "http://www.w3.org/Graphics/SVG/1.1/DTD/svg11.dtd" [
	<!ENTITY ns_extend "http://ns.adobe.com/Extensibility/1.0/">
	<!ENTITY ns_ai "http://ns.adobe.com/AdobeIllustrator/10.0/">
	<!ENTITY ns_graphs "http://ns.adobe.com/Graphs/1.0/">
	<!ENTITY ns_vars "http://ns.adobe.com/Variables/1.0/">
	<!ENTITY ns_imrep "http://ns.adobe.com/ImageReplacement/1.0/">
	<!ENTITY ns_sfw "http://ns.adobe.com/SaveForWeb/1.0/">
	<!ENTITY ns_custom "http://ns.adobe.com/GenericCustomNamespace/1.0/">
	<!ENTITY ns_adobe_xpath "http://ns.adobe.com/XPath/1.0/">
]>
<svg version="1.1" id="Layer_1" xmlns:x="&ns_extend;" xmlns:i="&ns_ai;" xmlns:graph="&ns_graphs;"
	 xmlns="http://www.w3.org/2000/svg" xmlns:xlink="http://www.w3.org/1999/xlink" x="0px" y="0px" width="2048px" height="2048px"
	 viewBox="0 0 2048 2048" style="enable-background:new 0 0 2048 2048;" xml:space="preserve">
<style type="text/css">
	.Drop_x0020_Shadow{fill:none;}
	.Round_x0020_Corners_x0020_2_x0020_pt{fill:#rgba(187, 37, 45, 0.4);stroke:#231F20;stroke-miterlimit:10;}
	.Live_x0020_Reflect_x0020_X{fill:none;}
	.Bevel_x0020_Soft{fill:url(#SVGID_1_);}
	.Dusk{fill:#rgba(187, 37, 45, 0.4);}
	.Foliage_GS{fill:rgba(187, 37, 45, 0.4);}
	.Pompadour_GS{fill-rule:evenodd;clip-rule:evenodd;fill:#44ADE2;}
	.st0{opacity:0.46;clip-path:url(#SVGID_3_);}
	.st1{fill:rgba(187, 37, 45, 0.4);}
	.st2{clip-path:url(#SVGID_3_);}
	.st3{opacity:0.46;}
</style>
<metadata>
	<sfw  xmlns="&ns_sfw;">
		<slices></slices>
		<sliceSourceBounds  bottomLeftOrigin="true" height="2646.2" width="2514.8" x="-221.7" y="-2266.4"></sliceSourceBounds>
	</sfw>
</metadata>
<linearGradient id="SVGID_1_" gradientUnits="userSpaceOnUse" x1="0" y1="0" x2="0.7071" y2="0.7071">
	<stop  offset="0" style="stop-color:#DEDFE3"/>
	<stop  offset="0.1783" style="stop-color:#DADBDF"/>
	<stop  offset="0.3611" style="stop-color:#CECFD3"/>
	<stop  offset="0.546" style="stop-color:#B9BCBF"/>
	<stop  offset="0.7324" style="stop-color:#9CA0A2"/>
	<stop  offset="0.9181" style="stop-color:#787D7E"/>
	<stop  offset="1" style="stop-color:#656B6C"/>
</linearGradient>
<g>
	<g>
		<defs>
			<rect id="SVGID_2_" width="2048" height="2048"/>
		</defs>
		<clipPath id="SVGID_3_">
			<use xlink:href="#SVGID_2_"  style="overflow:visible;"/>
		</clipPath>
		<g class="st0">
			<g>
				<path class="st1" d="M1728.9,421.1l-57.5-17.7l-13.4-58.6l44.1-40.9l57.5,17.7l13.4,58.6L1728.9,421.1z M1674,401.1l54.1,16.7
					l41.5-38.5l-12.6-55.2l-54.1-16.7l-41.5,38.5L1674,401.1z"/>
				<path class="st1" d="M1758.9,325.5l-57.5-17.7l-13.4-58.6l44.1-40.9l57.5,17.7l13.4,58.6L1758.9,325.5z M1703.9,305.5l54.1,16.7
					l41.5-38.5l-12.6-55.2l-54.1-16.7l-41.5,38.5L1703.9,305.5z"/>
				<path class="st1" d="M1827.5,399.2l-57.5-17.7l-13.4-58.6l44.1-40.9l57.5,17.7l13.4,58.6L1827.5,399.2z M1772.5,379.2l54.1,16.7
					l41.5-38.5l-12.6-55.2l-54.1-16.7l-41.5,38.5L1772.5,379.2z"/>
			</g>
			<g>
				<path class="st1" d="M1946.7,479.1l-57.5-17.7l-13.4-58.6l44.1-40.9l57.5,17.7l13.4,58.6L1946.7,479.1z M1891.8,459l54.1,16.7
					l41.5-38.5l-12.6-55.2l-54.1-16.7l-41.5,38.5L1891.8,459z"/>
				<path class="st1" d="M1976.7,383.5l-57.5-17.7l-13.4-58.6l44.1-40.9l57.5,17.7l13.4,58.6L1976.7,383.5z M1921.7,363.4l54.1,16.7
					l41.5-38.5l-12.6-55.2l-54.1-16.7l-41.5,38.5L1921.7,363.4z"/>
				<path class="st1" d="M2045.2,457.2l-57.5-17.7l-13.4-58.6l44.1-40.9l57.5,17.7l13.4,58.6L2045.2,457.2z M1990.3,437.1l54.1,16.7
					l41.5-38.5l-12.6-55.2l-54.1-16.7l-41.5,38.5L1990.3,437.1z"/>
			</g>
			<g>
				<path class="st1" d="M2002.7,684.9l-57.5-17.7l-13.4-58.6l44.1-40.9l57.5,17.7l13.4,58.6L2002.7,684.9z M1947.8,664.8l54.1,16.7
					l41.5-38.5l-12.6-55.2l-54.1-16.7l-41.5,38.5L1947.8,664.8z"/>
				<path class="st1" d="M2032.6,589.3l-57.5-17.7l-13.4-58.6l44.1-40.9l57.5,17.7l13.4,58.6L2032.6,589.3z M1977.7,569.2l54.1,16.7
					l41.5-38.5l-12.6-55.2l-54.1-16.7l-41.5,38.5L1977.7,569.2z"/>
				<path class="st1" d="M2101.2,663l-57.5-17.7l-13.4-58.6l44.1-40.9l57.5,17.7l13.4,58.6L2101.2,663z M2046.3,642.9l54.1,16.7
					l41.5-38.5l-12.6-55.2l-54.1-16.7l-41.5,38.5L2046.3,642.9z"/>
			</g>
			<g>
				<path class="st1" d="M2106.6,336l-57.5-17.7l-13.4-58.6l44.1-40.9l57.5,17.7l13.4,58.6L2106.6,336z M2051.7,315.9l54.1,16.7
					l41.5-38.5l-12.6-55.2l-54.1-16.7l-41.5,38.5L2051.7,315.9z"/>
			</g>
			<g>
				<path class="st1" d="M1822.9,42.3l-57.5-17.7l-13.4-58.6l44.1-40.9l57.5,17.7L1867,1.4L1822.9,42.3z M1768,22.2l54.1,16.7
					l41.5-38.5L1851-54.9l-54.1-16.7L1755.4-33L1768,22.2z"/>
				<path class="st1" d="M1921.4,20.4l-57.5-17.7L1850.6-56l44.1-40.9l57.5,17.7l13.4,58.6L1921.4,20.4z M1866.5,0.3l54.1,16.7
					l41.5-38.5l-12.6-55.2l-54.1-16.7l-41.5,38.5L1866.5,0.3z"/>
			</g>
			<g>
				<path class="st1" d="M2056.7,108.2l-57.5-17.7l-13.4-58.6L2029.9-9l57.5,17.7l13.4,58.6L2056.7,108.2z M2001.7,88.1l54.1,16.7
					l41.5-38.5l-12.6-55.2l-54.1-16.7l-41.5,38.5L2001.7,88.1z"/>
				<path class="st1" d="M2086.6,12.6l-57.5-17.7l-13.4-58.6l44.1-40.9l57.5,17.7l13.4,58.6L2086.6,12.6z M2031.7-7.5l54.1,16.7
					l41.5-38.5l-12.6-55.2l-54.1-16.7l-41.5,38.5L2031.7-7.5z"/>
			</g>
			<g>
				<path class="st1" d="M1459.2,136.2l-57.5-17.7l-13.4-58.6l44.1-40.9l57.5,17.7l13.4,58.6L1459.2,136.2z M1404.3,116.1l54.1,16.7
					l41.5-38.5L1487.4,39l-54.1-16.7l-41.5,38.5L1404.3,116.1z"/>
				<path class="st1" d="M1489.1,40.6l-57.5-17.7l-13.4-58.6l44.1-40.9l57.5,17.7l13.4,58.6L1489.1,40.6z M1434.2,20.5l54.1,16.7
					l41.5-38.5l-12.6-55.2l-54.1-16.7l-41.5,38.5L1434.2,20.5z"/>
				<path class="st1" d="M1557.7,114.3l-57.5-17.7L1486.9,38L1531-2.9l57.5,17.7l13.4,58.6L1557.7,114.3z M1502.8,94.2l54.1,16.7
					l41.5-38.5l-12.6-55.2l-54.1-16.7L1490.2,39L1502.8,94.2z"/>
			</g>
			<g>
				<path class="st1" d="M1890.8,266.1l-57.5-17.7l-13.4-58.6l44.1-40.9l57.5,17.7l13.4,58.6L1890.8,266.1z M1835.9,246l54.1,16.7
					l41.5-38.5l-12.6-55.2l-54.1-16.7l-41.5,38.5L1835.9,246z"/>
				<path class="st1" d="M1920.7,170.5l-57.5-17.7l-13.4-58.6l44.1-40.9l57.5,17.7l13.4,58.6L1920.7,170.5z M1865.8,150.4l54.1,16.7
					l41.5-38.5l-12.6-55.2l-54.1-16.7l-41.5,38.5L1865.8,150.4z"/>
				<path class="st1" d="M1989.3,244.2l-57.5-17.7l-13.4-58.6l44.1-40.9l57.5,17.7l13.4,58.6L1989.3,244.2z M1934.4,224.1l54.1,16.7
					l41.5-38.5l-12.6-55.2l-54.1-16.7l-41.5,38.5L1934.4,224.1z"/>
			</g>
			<g>
				<path class="st1" d="M1666.5,198.8l-57.5-17.7l-13.4-58.6l44.1-40.9l57.5,17.7l13.4,58.6L1666.5,198.8z M1611.6,178.7l54.1,16.7
					l41.5-38.5l-12.6-55.2L1640.5,85l-41.5,38.5L1611.6,178.7z"/>
				<path class="st1" d="M1696.4,103.2l-57.5-17.7l-13.4-58.6l44.1-40.9l57.5,17.7l13.4,58.6L1696.4,103.2z M1641.5,83.1l54.1,16.7
					l41.5-38.5l-12.6-55.2l-54.1-16.7l-41.5,38.5L1641.5,83.1z"/>
				<path class="st1" d="M1765,176.9l-57.5-17.7l-13.4-58.6l44.1-40.9l57.5,17.7l13.4,58.6L1765,176.9z M1710.1,156.9l54.1,16.7
					l41.5-38.5l-12.6-55.2L1739,63.1l-41.5,38.5L1710.1,156.9z"/>
			</g>
		</g>
		<g class="st2">
			<g>
				<g>
					<path class="st1" d="M1293.9,261.7l-68.7-21.2l-16-70.1l52.7-48.9l68.7,21.2l16,70.1L1293.9,261.7z M1227.7,238.2l65.4,20.2
						l50.2-46.5l-15.2-66.7l-65.4-20.2l-50.2,46.5L1227.7,238.2z"/>
					<path class="st1" d="M1329.8,146.9l-68.7-21.2l-16-70.1l52.7-48.9l68.7,21.2l16,70.1L1329.8,146.9z M1263.7,123.3l65.4,20.2
						l50.2-46.5L1364,30.3l-65.4-20.2l-50.2,46.5L1263.7,123.3z"/>
					<path class="st1" d="M1412.2,235.4l-68.7-21.2l-16-70.1l52.7-48.9l68.7,21.2l16,70.1L1412.2,235.4z M1346.1,211.9l65.4,20.2
						l50.2-46.5l-15.2-66.7L1381,98.6l-50.2,46.5L1346.1,211.9z"/>
				</g>
				<g>
					<circle class="st1" cx="1264.4" cy="121.8" r="9.6"/>
					<circle class="st1" cx="1251.8" cy="57" r="14.4"/>
					<circle class="st1" cx="1298" cy="9.6" r="9.3"/>
					<circle class="st1" cx="1367.6" cy="32.4" r="14.4"/>
					<circle class="st1" cx="1331.6" cy="144.1" r="14.4"/>
					<circle class="st1" cx="1414.4" cy="231.4" r="14.4"/>
					<circle class="st1" cx="1381.4" cy="95.4" r="10.5"/>
					<circle class="st1" cx="1448.6" cy="120" r="14.4"/>
					<circle class="st1" cx="1463" cy="189.1" r="9"/>
					<circle class="st1" cx="1343.3" cy="216.1" r="9"/>
					<circle class="st1" cx="1290.8" cy="259.9" r="14.4"/>
					<circle class="st1" cx="1211.6" cy="169.9" r="14.4"/>
					<circle class="st1" cx="1223.6" cy="238.3" r="8.1"/>
				</g>
			</g>
			<g>
				<g>
					<path class="st1" d="M1545.9,283.3l-68.7-21.2l-16-70.1l52.7-48.9l68.7,21.2l16,70.1L1545.9,283.3z M1479.8,259.8l65.4,20.2
						l50.2-46.5l-15.2-66.7l-65.4-20.2l-50.2,46.5L1479.8,259.8z"/>
					<path class="st1" d="M1581.9,168.5l-68.7-21.2l-16-70.1l52.7-48.9l68.7,21.2l16,70.1L1581.9,168.5z M1515.7,144.9l65.4,20.2
						l50.2-46.5l-15.2-66.7l-65.4-20.2l-50.2,46.5L1515.7,144.9z"/>
					<path class="st1" d="M1664.3,257l-68.7-21.2l-16-70.1l52.7-48.9l68.7,21.2l16,70.1L1664.3,257z M1598.1,233.5l65.4,20.2
						l50.2-46.5l-15.2-66.7l-65.4-20.2l-50.2,46.5L1598.1,233.5z"/>
				</g>
				<g>
					<circle class="st1" cx="1516.5" cy="143.5" r="9.6"/>
					<circle class="st1" cx="1503.9" cy="78.6" r="14.4"/>
					<circle class="st1" cx="1550.1" cy="31.2" r="9.3"/>
					<circle class="st1" cx="1619.7" cy="54" r="14.4"/>
					<circle class="st1" cx="1583.7" cy="165.7" r="14.4"/>
					<circle class="st1" cx="1666.5" cy="253" r="14.4"/>
					<circle class="st1" cx="1633.5" cy="117" r="10.5"/>
					<circle class="st1" cx="1700.7" cy="141.7" r="14.4"/>
					<circle class="st1" cx="1715.1" cy="210.7" r="9"/>
					<circle class="st1" cx="1595.4" cy="237.7" r="9"/>
					<circle class="st1" cx="1542.9" cy="281.5" r="14.4"/>
					<circle class="st1" cx="1463.6" cy="191.5" r="14.4"/>
					<circle class="st1" cx="1475.7" cy="259.9" r="8.1"/>
				</g>
			</g>
			<g>
				<g>
					<path class="st1" d="M1539.9,533l-68.7-21.2l-16-70.1l52.7-48.9l68.7,21.2l16,70.1L1539.9,533z M1473.8,509.4l65.4,20.2
						l50.2-46.5l-15.2-66.7l-65.4-20.2l-50.2,46.5L1473.8,509.4z"/>
					<path class="st1" d="M1575.9,418.1l-68.7-21.2l-16-70.1l52.7-48.9l68.7,21.2l16,70.1L1575.9,418.1z M1509.7,394.6l65.4,20.2
						l50.2-46.5l-15.2-66.7l-65.4-20.2l-50.2,46.5L1509.7,394.6z"/>
					<path class="st1" d="M1658.3,506.7l-68.7-21.2l-16-70.1l52.7-48.9l68.7,21.2l16,70.1L1658.3,506.7z M1592.1,483.1l65.4,20.2
						l50.2-46.5l-15.2-66.7l-65.4-20.2l-50.2,46.5L1592.1,483.1z"/>
				</g>
				<g>
					<circle class="st1" cx="1510.5" cy="393.1" r="9.6"/>
					<circle class="st1" cx="1497.9" cy="328.3" r="14.4"/>
					<circle class="st1" cx="1544.1" cy="280.9" r="9.3"/>
					<circle class="st1" cx="1613.7" cy="303.7" r="14.4"/>
					<circle class="st1" cx="1577.7" cy="415.3" r="14.4"/>
					<circle class="st1" cx="1660.5" cy="502.6" r="14.4"/>
					<circle class="st1" cx="1627.5" cy="366.7" r="10.5"/>
					<circle class="st1" cx="1694.7" cy="391.3" r="14.4"/>
					<circle class="st1" cx="1709.1" cy="460.3" r="9"/>
					<circle class="st1" cx="1589.4" cy="487.3" r="9"/>
					<circle class="st1" cx="1536.9" cy="531.1" r="14.4"/>
					<circle class="st1" cx="1457.6" cy="441.1" r="14.4"/>
					<circle class="st1" cx="1469.6" cy="509.5" r="8.1"/>
				</g>
			</g>
			<g>
				<g>
					<path class="st1" d="M1804,559.4l-68.7-21.2l-16-70.1l52.7-48.9l68.7,21.2l16,70.1L1804,559.4z M1737.9,535.8l65.4,20.2
						l50.2-46.5l-15.2-66.7l-65.4-20.2l-50.2,46.5L1737.9,535.8z"/>
					<path class="st1" d="M1839.9,444.5l-68.7-21.2l-16-70.1l52.7-48.9l68.7,21.2l16,70.1L1839.9,444.5z M1773.8,421l65.4,20.2
						l50.2-46.5l-15.2-66.7l-65.4-20.2l-50.2,46.5L1773.8,421z"/>
					<path class="st1" d="M1922.4,533.1l-68.7-21.2l-16-70.1l52.7-48.9l68.7,21.2l16,70.1L1922.4,533.1z M1856.2,509.5l65.4,20.2
						l50.2-46.5l-15.2-66.7l-65.4-20.2l-50.2,46.5L1856.2,509.5z"/>
				</g>
				<g>
					<circle class="st1" cx="1774.5" cy="419.5" r="9.6"/>
					<circle class="st1" cx="1761.9" cy="354.7" r="14.4"/>
					<circle class="st1" cx="1808.1" cy="307.3" r="9.3"/>
					<circle class="st1" cx="1877.7" cy="330.1" r="14.4"/>
					<circle class="st1" cx="1841.7" cy="441.7" r="14.4"/>
					<circle class="st1" cx="1924.6" cy="529" r="14.4"/>
					<circle class="st1" cx="1891.5" cy="393.1" r="10.5"/>
					<circle class="st1" cx="1958.8" cy="417.7" r="14.4"/>
					<circle class="st1" cx="1973.2" cy="486.7" r="9"/>
					<circle class="st1" cx="1853.4" cy="513.7" r="9"/>
					<circle class="st1" cx="1800.9" cy="557.5" r="14.4"/>
					<circle class="st1" cx="1721.7" cy="467.5" r="14.4"/>
					<circle class="st1" cx="1733.7" cy="535.9" r="8.1"/>
				</g>
			</g>
			<g>
				<g>
					<path class="st1" d="M1838.8,274.3l-68.7-21.2l-16-70.1l52.7-48.9l68.7,21.2l16,70.1L1838.8,274.3z M1772.7,250.8l65.4,20.2
						l50.2-46.5l-15.2-66.7l-65.4-20.2l-50.2,46.5L1772.7,250.8z"/>
					<path class="st1" d="M1874.8,159.5l-68.7-21.2l-16-70.1l52.7-48.9l68.7,21.2l16,70.1L1874.8,159.5z M1808.6,135.9l65.4,20.2
						l50.2-46.5l-15.2-66.7l-65.4-20.2l-50.2,46.5L1808.6,135.9z"/>
					<path class="st1" d="M1957.2,248l-68.7-21.2l-16-70.1l52.7-48.9l68.7,21.2l16,70.1L1957.2,248z M1891,224.5l65.4,20.2
						l50.2-46.5l-15.2-66.7l-65.4-20.2l-50.2,46.5L1891,224.5z"/>
				</g>
				<g>
					<circle class="st1" cx="1809.3" cy="134.5" r="9.6"/>
					<circle class="st1" cx="1796.7" cy="69.6" r="14.4"/>
					<circle class="st1" cx="1842.9" cy="22.2" r="9.3"/>
					<circle class="st1" cx="1912.6" cy="45" r="14.4"/>
					<circle class="st1" cx="1876.5" cy="156.7" r="14.4"/>
					<circle class="st1" cx="1959.4" cy="244" r="14.4"/>
					<circle class="st1" cx="1926.4" cy="108" r="10.5"/>
					<circle class="st1" cx="1993.6" cy="132.7" r="14.4"/>
					<circle class="st1" cx="2008" cy="201.7" r="9"/>
					<circle class="st1" cx="1888.2" cy="228.7" r="9"/>
					<circle class="st1" cx="1835.7" cy="272.5" r="14.4"/>
					<circle class="st1" cx="1756.5" cy="182.5" r="14.4"/>
					<circle class="st1" cx="1768.5" cy="250.9" r="8.1"/>
				</g>
			</g>
			<g>
				<g>
					<path class="st1" d="M1800.4,815l-68.7-21.2l-16-70.1l52.7-48.9l68.7,21.2l16,70.1L1800.4,815z M1734.3,791.5l65.4,20.2
						l50.2-46.5l-15.2-66.7l-65.4-20.2l-50.2,46.5L1734.3,791.5z"/>
					<path class="st1" d="M1836.3,700.2l-68.7-21.2l-16-70.1l52.7-48.9l68.7,21.2l16,70.1L1836.3,700.2z M1770.2,676.6l65.4,20.2
						l50.2-46.5l-15.2-66.7l-65.4-20.2l-50.2,46.5L1770.2,676.6z"/>
					<path class="st1" d="M1918.8,788.7l-68.7-21.2l-16-70.1l52.7-48.9l68.7,21.2l16,70.1L1918.8,788.7z M1852.6,765.2l65.4,20.2
						l50.2-46.5l-15.2-66.7l-65.4-20.2l-50.2,46.5L1852.6,765.2z"/>
				</g>
				<g>
					<circle class="st1" cx="1770.9" cy="675.2" r="9.6"/>
					<circle class="st1" cx="1758.3" cy="610.4" r="14.4"/>
					<circle class="st1" cx="1804.5" cy="562.9" r="9.3"/>
					<circle class="st1" cx="1874.1" cy="585.8" r="14.4"/>
					<circle class="st1" cx="1838.1" cy="697.4" r="14.4"/>
					<circle class="st1" cx="1921" cy="784.7" r="14.4"/>
					<circle class="st1" cx="1887.9" cy="648.8" r="10.5"/>
					<circle class="st1" cx="1955.2" cy="673.4" r="14.4"/>
					<circle class="st1" cx="1969.6" cy="742.4" r="9"/>
					<circle class="st1" cx="1849.8" cy="769.4" r="9"/>
					<circle class="st1" cx="1797.3" cy="813.2" r="14.4"/>
					<circle class="st1" cx="1718.1" cy="723.2" r="14.4"/>
					<circle class="st1" cx="1730.1" cy="791.6" r="8.1"/>
				</g>
			</g>
		</g>
		<g class="st2">
			<g class="st3">
				<g>
					<path class="st1" d="M277.9,263l-45.5-49.1l19.7-64l65.3-14.9l45.5,49.1l-19.7,64L277.9,263z M235.8,213.1l43.2,46.5l61.9-14.1
						l18.7-60.7l-43.2-46.5l-61.9,14.1L235.8,213.1z"/>
					<path class="st1" d="M384.7,296.4l-45.5-49.1l19.7-64l65.3-14.9l45.5,49.1l-19.7,64L384.7,296.4z M342.5,246.5l43.2,46.5
						l61.9-14.1l18.7-60.7l-43.2-46.5l-61.9,14.1L342.5,246.5z"/>
					<path class="st1" d="M302.4,373l-45.5-49.1l19.7-64l65.3-14.9l45.5,49.1l-19.7,64L302.4,373z M260.2,323.1l43.2,46.5l61.9-14.1
						l18.7-60.7l-43.2-46.5L279,262.5L260.2,323.1z"/>
				</g>
				<g>
					<path class="st1" d="M213.2,506.2l-45.5-49.1l19.7-64l65.3-14.9l45.5,49.1l-19.7,64L213.2,506.2z M171.1,456.3l43.2,46.5
						l61.9-14.1l18.7-60.7l-43.2-46.5l-61.9,14.1L171.1,456.3z"/>
					<path class="st1" d="M320,539.6l-45.5-49.1l19.7-64l65.3-14.9l45.5,49.1l-19.7,64L320,539.6z M277.8,489.8l43.2,46.5l61.9-14.1
						l18.7-60.7L358.4,415l-61.9,14.1L277.8,489.8z"/>
					<path class="st1" d="M237.7,616.2l-45.5-49.1l19.7-64l65.3-14.9l45.5,49.1l-19.7,64L237.7,616.2z M195.5,566.4l43.2,46.5
						l61.9-14.1l18.7-60.7l-43.2-46.5l-61.9,14.1L195.5,566.4z"/>
				</g>
				<g>
					<path class="st1" d="M-16.6,568.7l-45.5-49.1l19.7-64l65.3-14.9l45.5,49.1l-19.7,64L-16.6,568.7z M-58.7,518.8l43.2,46.5
						l61.9-14.1L65,490.6l-43.2-46.5L-40,458.2L-58.7,518.8z"/>
					<path class="st1" d="M90.2,602.1L44.6,553l19.7-64l65.3-14.9l45.5,49.1l-19.7,64L90.2,602.1z M48,552.2l43.2,46.5l61.9-14.1
						l18.7-60.7l-43.2-46.5l-61.9,14.1L48,552.2z"/>
					<path class="st1" d="M7.9,678.7l-45.5-49.1l19.7-64l65.3-14.9l45.5,49.1l-19.7,64L7.9,678.7z M-34.3,628.8l43.2,46.5l61.9-14.1
						l18.7-60.7l-43.2-46.5l-61.9,14.1L-34.3,628.8z"/>
				</g>
				<g>
					<path class="st1" d="M149.9,733.8l-45.5-49.1l19.7-64l65.3-14.9l45.5,49.1l-19.7,64L149.9,733.8z M107.7,684l43.2,46.5
						l61.9-14.1l18.7-60.7l-43.2-46.5l-61.9,14.1L107.7,684z"/>
					<path class="st1" d="M256.6,767.2l-45.5-49.1l19.7-64l65.3-14.9l45.5,49.1l-19.7,64L256.6,767.2z M214.5,717.4l43.2,46.5
						l61.9-14.1l18.7-60.7l-43.2-46.5l-61.9,14.1L214.5,717.4z"/>
					<path class="st1" d="M174.3,843.8l-45.5-49.1l19.7-64l65.3-14.9l45.5,49.1l-19.7,64L174.3,843.8z M132.2,794l43.2,46.5
						l61.9-14.1l18.7-60.7l-43.2-46.5l-61.9,14.1L132.2,794z"/>
				</g>
				<g>
					<path class="st1" d="M373,684.7l-45.5-49.1l19.7-64l65.3-14.9l45.5,49.1l-19.7,64L373,684.7z M330.9,634.9l43.2,46.5l61.9-14.1
						l18.7-60.7l-43.2-46.5l-61.9,14.1L330.9,634.9z"/>
					<path class="st1" d="M479.8,718.1l-45.5-49.1l19.7-64l65.3-14.9l45.5,49.1l-19.7,64L479.8,718.1z M437.6,668.3l43.2,46.5
						l61.9-14.1l18.7-60.7l-43.2-46.5l-61.9,14.1L437.6,668.3z"/>
					<path class="st1" d="M397.5,794.7l-45.5-49.1l19.7-64l65.3-14.9l45.5,49.1l-19.7,64L397.5,794.7z M355.3,744.9l43.2,46.5
						l61.9-14.1l18.7-60.7l-43.2-46.5L374,684.2L355.3,744.9z"/>
				</g>
				<g>
					<path class="st1" d="M701,367.9l-45.5-49.1l19.7-64l65.3-14.9L786,289l-19.7,64L701,367.9z M658.9,318l43.2,46.5l61.9-14.1
						l18.7-60.7l-43.2-46.5l-61.9,14.1L658.9,318z"/>
					<path class="st1" d="M807.8,401.3l-45.5-49.1l19.7-64l65.3-14.9l45.5,49.1l-19.7,64L807.8,401.3z M765.6,351.5l43.2,46.5
						l61.9-14.1l18.7-60.7l-43.2-46.5l-61.9,14.1L765.6,351.5z"/>
					<path class="st1" d="M725.5,477.9l-45.5-49.1l19.7-64l65.3-14.9l45.5,49.1l-19.7,64L725.5,477.9z M683.3,428l43.2,46.5
						l61.9-14.1l18.7-60.7l-43.2-46.5L702,367.4L683.3,428z"/>
				</g>
				<g>
					<path class="st1" d="M765.7,135.8l-45.5-49.1l19.7-64l65.3-14.9L850.7,57l-19.7,64L765.7,135.8z M723.6,86l43.2,46.5l61.9-14.1
						l18.7-60.7l-43.2-46.5l-61.9,14.1L723.6,86z"/>
					<path class="st1" d="M872.5,169.2l-45.5-49.1l19.7-64l65.3-14.9l45.5,49.1l-19.7,64L872.5,169.2z M830.3,119.4l43.2,46.5
						l61.9-14.1l18.7-60.7l-43.2-46.5L849,58.7L830.3,119.4z"/>
					<path class="st1" d="M790.2,245.8l-45.5-49.1l19.7-64l65.3-14.9l45.5,49.1l-19.7,64L790.2,245.8z M748,196l43.2,46.5l61.9-14.1
						l18.7-60.7l-43.2-46.5l-61.9,14.1L748,196z"/>
				</g>
				<g>
					<path class="st1" d="M627.4,628.9l-45.5-49.1l19.7-64l65.3-14.9l45.5,49.1l-19.7,64L627.4,628.9z M585.2,579.1l43.2,46.5
						l61.9-14.1l18.7-60.7l-43.2-46.5l-61.9,14.1L585.2,579.1z"/>
					<path class="st1" d="M734.1,662.4l-45.5-49.1l19.7-64l65.3-14.9l45.5,49.1l-19.7,64L734.1,662.4z M692,612.5l43.2,46.5
						l61.9-14.1l18.7-60.7l-43.2-46.5l-61.9,14.1L692,612.5z"/>
					<path class="st1" d="M651.8,739l-45.5-49.1l19.7-64l65.3-14.9l45.5,49.1l-19.7,64L651.8,739z M609.7,689.1l43.2,46.5l61.9-14.1
						l18.7-60.7l-43.2-46.5l-61.9,14.1L609.7,689.1z"/>
				</g>
				<g>
					<path class="st1" d="M620.6,71.8l-45.5-49.1l19.7-64l65.3-14.9l45.5,49.1l-19.7,64L620.6,71.8z M578.4,22l43.2,46.5l61.9-14.1
						l18.7-60.7L659-52.8l-61.9,14.1L578.4,22z"/>
				</g>
				<g>
					<path class="st1" d="M451.1,443.7l-45.5-49.1l19.7-64l65.3-14.9l45.5,49.1l-19.7,64L451.1,443.7z M409,393.9l43.2,46.5
						l61.9-14.1l18.7-60.7l-43.2-46.5l-61.9,14.1L409,393.9z"/>
					<path class="st1" d="M557.9,477.2l-45.5-49.1l19.7-64l65.3-14.9l45.5,49.1l-19.7,64L557.9,477.2z M515.7,427.3l43.2,46.5
						l61.9-14.1l18.7-60.7l-43.2-46.5l-61.9,14.1L515.7,427.3z"/>
					<path class="st1" d="M475.6,553.8L430,504.7l19.7-64l65.3-14.9l45.5,49.1l-19.7,64L475.6,553.8z M433.4,503.9l43.2,46.5
						l61.9-14.1l18.7-60.7L514,429.1l-61.9,14.1L433.4,503.9z"/>
				</g>
				<g>
					<path class="st1" d="M526.2,193.2l-45.5-49.1l19.7-64l65.3-14.9l45.5,49.1l-19.7,64L526.2,193.2z M484,143.4l43.2,46.5
						l61.9-14.1l18.7-60.7l-43.2-46.5l-61.9,14.1L484,143.4z"/>
					<path class="st1" d="M632.9,226.6l-45.5-49.1l19.7-64l65.3-14.9l45.5,49.1l-19.7,64L632.9,226.6z M590.8,176.8l43.2,46.5
						l61.9-14.1l18.7-60.7L671.4,102l-61.9,14.1L590.8,176.8z"/>
					<path class="st1" d="M550.6,303.2l-45.5-49.1l19.7-64l65.3-14.9l45.5,49.1l-19.7,64L550.6,303.2z M508.5,253.4l43.2,46.5
						l61.9-14.1l18.7-60.7l-43.2-46.5l-61.9,14.1L508.5,253.4z"/>
				</g>
			</g>
			<g>
				<g>
					<g>
						<path class="st1" d="M440.8,68.3L386.3,9.6l23.6-76.5L488-84.8l54.5,58.7l-23.6,76.5L440.8,68.3z M389.7,8.8L441.8,65l74.7-17
							l22.6-73.2L487-81.4l-74.7,17L389.7,8.8z"/>
						<path class="st1" d="M569,108.4l-54.5-58.7l23.6-76.5l78.1-17.8l54.5,58.7l-23.6,76.5L569,108.4z M517.9,48.9l52.1,56.2
							l74.7-17l22.6-73.2l-52.1-56.2l-74.7,17L517.9,48.9z"/>
						<path class="st1" d="M470.1,200.4l-54.5-58.7l23.6-76.5l78.1-17.8l54.5,58.7l-23.6,76.5L470.1,200.4z M419.1,141l52.1,56.2
							l74.7-17l22.6-73.2l-52.1-56.2l-74.7,17L419.1,141z"/>
					</g>
					<g>
						<circle class="st1" cx="667.6" cy="14.2" r="10.4"/>
						<circle class="st1" cx="642.2" cy="92" r="16.1"/>
						<circle class="st1" cx="517.5" cy="51.7" r="16.1"/>
						<circle class="st1" cx="420" cy="144.2" r="16.1"/>
						<circle class="st1" cx="571.8" cy="107.4" r="11.7"/>
						<circle class="st1" cx="544.3" cy="182.4" r="16.1"/>
						<circle class="st1" cx="467.2" cy="198.5" r="10.1"/>
						<circle class="st1" cx="437.1" cy="64.8" r="10.1"/>
						<circle class="st1" cx="388.2" cy="6.2" r="16.1"/>
					</g>
				</g>
				<g>
					<g>
						<path class="st1" d="M162,61.6L107.5,2.9l23.6-76.5l78.1-17.8l54.5,58.7L240,43.7L162,61.6z M110.9,2.1L163,58.2l74.7-17
							L260.3-32l-52.1-56.2l-74.7,17L110.9,2.1z"/>
						<path class="st1" d="M290.2,101.7L235.8,43l23.6-76.5l78.1-17.8l54.5,58.7l-23.6,76.5L290.2,101.7z M239.2,42.2l52.1,56.2
							l74.7-17l22.6-73.2L336.4-48l-74.7,17L239.2,42.2z"/>
						<path class="st1" d="M191.4,193.7L136.9,135l23.6-76.5l78.1-17.8L293,99.4l-23.6,76.5L191.4,193.7z M140.3,134.3l52.1,56.2
							l74.7-17l22.6-73.2L237.5,44l-74.7,17L140.3,134.3z"/>
					</g>
					<g>
						<circle class="st1" cx="388.8" cy="7.5" r="10.4"/>
						<circle class="st1" cx="363.4" cy="85.3" r="16.1"/>
						<circle class="st1" cx="238.7" cy="45" r="16.1"/>
						<circle class="st1" cx="141.2" cy="137.5" r="16.1"/>
						<circle class="st1" cx="293" cy="100.7" r="11.7"/>
						<circle class="st1" cx="265.5" cy="175.7" r="16.1"/>
						<circle class="st1" cx="188.5" cy="191.8" r="10.1"/>
						<circle class="st1" cx="158.3" cy="58.1" r="10.1"/>
						<circle class="st1" cx="109.4" cy="-0.5" r="16.1"/>
					</g>
				</g>
				<g>
					<g>
						<path class="st1" d="M132.5,356.4L78,297.7l23.6-76.5l78.1-17.8l54.5,58.7l-23.6,76.5L132.5,356.4z M81.4,297l52.1,56.2
							l74.7-17l22.6-73.2l-52.1-56.2l-74.7,17L81.4,297z"/>
						<path class="st1" d="M260.7,396.6l-54.5-58.7l23.6-76.5l78.1-17.8l54.5,58.7l-23.6,76.5L260.7,396.6z M209.7,337.1l52.1,56.2
							l74.7-17L359,303l-52.1-56.2l-74.7,17L209.7,337.1z"/>
						<path class="st1" d="M161.9,488.6l-54.5-58.7l23.6-76.5l78.1-17.8l54.5,58.7l-23.6,76.5L161.9,488.6z M110.8,429.1l52.1,56.2
							l74.7-17l22.6-73.2l-52.1-56.2l-74.7,17L110.8,429.1z"/>
					</g>
					<g>
						<circle class="st1" cx="234" cy="264.9" r="10.7"/>
						<circle class="st1" cx="306.4" cy="250.8" r="16.1"/>
						<circle class="st1" cx="359.4" cy="302.4" r="10.4"/>
						<circle class="st1" cx="333.9" cy="380.1" r="16.1"/>
						<circle class="st1" cx="209.2" cy="339.9" r="16.1"/>
						<circle class="st1" cx="111.7" cy="432.4" r="16.1"/>
						<circle class="st1" cx="263.5" cy="395.5" r="11.7"/>
						<circle class="st1" cx="236" cy="470.6" r="16.1"/>
						<circle class="st1" cx="159" cy="486.7" r="10.1"/>
						<circle class="st1" cx="128.8" cy="353" r="10.1"/>
						<circle class="st1" cx="79.9" cy="294.3" r="16.1"/>
						<circle class="st1" cx="180.4" cy="205.9" r="16.1"/>
						<circle class="st1" cx="104" cy="219.3" r="9"/>
					</g>
				</g>
				<g>
					<g>
						<path class="st1" d="M450.8,395.3l-54.5-58.7l23.6-76.5l78.1-17.8l54.5,58.7l-23.6,76.5L450.8,395.3z M399.7,335.8l52.1,56.2
							l74.7-17l22.6-73.2L497,245.6l-74.7,17L399.7,335.8z"/>
						<path class="st1" d="M579.1,435.4l-54.5-58.7l23.6-76.5l78.1-17.8l54.5,58.7l-23.6,76.5L579.1,435.4z M528,376l52.1,56.2
							l74.7-17l22.6-73.2l-52.1-56.2l-74.7,17L528,376z"/>
						<path class="st1" d="M480.2,527.5l-54.5-58.7l23.6-76.5l78.1-17.8l54.5,58.7l-23.6,76.5L480.2,527.5z M429.1,468l52.1,56.2
							l74.7-17l22.6-73.2l-52.1-56.2l-74.7,17L429.1,468z"/>
					</g>
					<g>
						<circle class="st1" cx="552.4" cy="303.7" r="10.7"/>
						<circle class="st1" cx="624.7" cy="289.7" r="16.1"/>
						<circle class="st1" cx="677.7" cy="341.3" r="10.4"/>
						<circle class="st1" cx="652.2" cy="419" r="16.1"/>
						<circle class="st1" cx="527.6" cy="378.8" r="16.1"/>
						<circle class="st1" cx="430.1" cy="471.3" r="16.1"/>
						<circle class="st1" cx="581.8" cy="434.4" r="11.7"/>
						<circle class="st1" cx="554.4" cy="509.5" r="16.1"/>
						<circle class="st1" cx="477.3" cy="525.5" r="10.1"/>
						<circle class="st1" cx="447.1" cy="391.8" r="10.1"/>
						<circle class="st1" cx="398.2" cy="333.2" r="16.1"/>
						<circle class="st1" cx="498.7" cy="244.7" r="16.1"/>
						<circle class="st1" cx="422.3" cy="258.2" r="9"/>
					</g>
				</g>
				<g>
					<g>
						<path class="st1" d="M-24.7,392.5l-54.5-58.7l23.6-76.5l78.1-17.8l54.5,58.7l-23.6,76.5L-24.7,392.5z M-75.8,333.1l52.1,56.2
							l74.7-17L73.5,299l-52.1-56.2l-74.7,17L-75.8,333.1z"/>
					</g>
					<g>
						<circle class="st1" cx="20.9" cy="246.8" r="16.1"/>
						<circle class="st1" cx="73.9" cy="298.4" r="10.4"/>
						<circle class="st1" cx="48.4" cy="376.1" r="16.1"/>
					</g>
				</g>
			</g>
		</g>
		<g class="st2">
			<g>
				<polygon class="st1" points="852.8,2193.5 850.5,2193.5 850.5,1847.8 733.5,1796.2 733.5,1472.4 735.8,1472.4 735.8,1794.8 
					852.8,1846.3 				"/>
				<polygon class="st1" points="1030.2,1902 1027.9,1902 1027.9,1556.3 910.8,1504.7 910.8,1180.9 913.1,1180.9 913.1,1503.2 
					1030.2,1554.8 				"/>
				<polygon class="st1" points="1221.6,2130.3 1219.3,2130.3 1219.3,1784.5 1102.2,1733 1102.2,1409.2 1104.5,1409.2 
					1104.5,1731.5 1221.6,1783 				"/>
				<polygon class="st1" points="1325.2,1889.7 1322.9,1889.7 1322.9,1544 1205.8,1492.4 1205.8,1168.6 1208.1,1168.6 1208.1,1491 
					1325.2,1542.5 				"/>
				<rect x="799" y="1334.2" class="st1" width="2.3" height="491.7"/>
				<polygon class="st1" points="1268.4,1519.2 1266.1,1519.2 1266.1,1375.7 1343.4,1335.9 1343.4,1248.8 1345.7,1248.8 
					1345.7,1337.3 1268.4,1377.1 				"/>
				<polygon class="st1" points="974.6,1532.7 972.3,1532.7 972.3,1310.7 1070.6,1256.3 1072.4,1091.9 1074.7,1091.9 1072.9,1257.6 
					1072.3,1258 974.6,1312.1 				"/>
				<circle class="st1" cx="850.5" cy="1847" r="15.2"/>
				<circle class="st1" cx="734.6" cy="1478.2" r="15.2"/>
				<circle class="st1" cx="910.2" cy="1504" r="15.2"/>
				<circle class="st1" cx="973.4" cy="1314.3" r="15.2"/>
				<circle class="st1" cx="914.9" cy="1184.4" r="15.2"/>
				<circle class="st1" cx="800.2" cy="1334.2" r="15.2"/>
				<circle class="st1" cx="1072.9" cy="1094.2" r="11.7"/>
				<circle class="st1" cx="1069.4" cy="1258.1" r="11.7"/>
				<circle class="st1" cx="1103.4" cy="1413.8" r="11.7"/>
				<circle class="st1" cx="1104.6" cy="1733.5" r="11.7"/>
				<circle class="st1" cx="1218.1" cy="1785" r="11.7"/>
				<circle class="st1" cx="1028.5" cy="1902" r="11.7"/>
				<circle class="st1" cx="1324.7" cy="1888" r="11.7"/>
				<circle class="st1" cx="1267.3" cy="1518" r="11.7"/>
				<circle class="st1" cx="1323.5" cy="1542.6" r="11.7"/>
				<circle class="st1" cx="1268.5" cy="1376.4" r="11.7"/>
				<circle class="st1" cx="1344.6" cy="1338.9" r="11.7"/>
				<circle class="st1" cx="1341" cy="1251.1" r="11.7"/>
				<circle class="st1" cx="1207.6" cy="1171.5" r="11.7"/>
				<circle class="st1" cx="1209.9" cy="1492.3" r="11.7"/>
			</g>
			<g>
				<polygon class="st1" points="1545.6,2255.3 1543.5,2255.3 1543.5,1929.3 1433.1,1880.7 1433.1,1575.3 1435.2,1575.3 
					1435.2,1879.3 1545.6,1927.8 				"/>
				<polygon class="st1" points="1712.9,1980.4 1710.7,1980.4 1710.7,1654.4 1600.3,1605.8 1600.3,1300.4 1602.5,1300.4 
					1602.5,1604.4 1712.9,1652.9 				"/>
				<polygon class="st1" points="1893.4,2195.7 1891.2,2195.7 1891.2,1869.6 1780.8,1821.1 1780.8,1515.7 1783,1515.7 1783,1819.7 
					1893.4,1868.2 				"/>
				<polygon class="st1" points="1991.1,1968.8 1988.9,1968.8 1988.9,1642.8 1878.5,1594.2 1878.5,1288.8 1880.7,1288.8 
					1880.7,1592.8 1991.1,1641.4 				"/>
				<rect x="1494.9" y="1445" class="st1" width="2.2" height="463.7"/>
				<polygon class="st1" points="1937.6,1619.4 1935.4,1619.4 1935.4,1484.1 2008.3,1446.6 2008.3,1364.4 2010.4,1364.4 
					2010.4,1447.9 1937.6,1485.4 				"/>
				<polygon class="st1" points="1660.5,1632.1 1658.3,1632.1 1658.3,1422.8 1751,1371.5 1752.7,1216.5 1754.8,1216.5 
					1753.2,1372.8 1752.6,1373.1 1660.5,1424.1 				"/>
				<circle class="st1" cx="1543.5" cy="1928.5" r="14.4"/>
				<circle class="st1" cx="1434.2" cy="1580.8" r="14.4"/>
				<circle class="st1" cx="1599.8" cy="1605.1" r="14.4"/>
				<circle class="st1" cx="1659.4" cy="1426.2" r="14.4"/>
				<circle class="st1" cx="1604.2" cy="1303.7" r="14.4"/>
				<circle class="st1" cx="1496" cy="1445" r="14.4"/>
				<circle class="st1" cx="1753.2" cy="1218.7" r="11"/>
				<circle class="st1" cx="1749.9" cy="1373.2" r="11"/>
				<circle class="st1" cx="1781.9" cy="1520.1" r="11"/>
				<circle class="st1" cx="1783" cy="1821.5" r="11"/>
				<circle class="st1" cx="1890.1" cy="1870" r="11"/>
				<circle class="st1" cx="1711.3" cy="1980.4" r="11"/>
				<circle class="st1" cx="1990.6" cy="1967.2" r="11"/>
				<circle class="st1" cx="1936.5" cy="1618.3" r="11"/>
				<circle class="st1" cx="1989.5" cy="1641.5" r="11"/>
				<circle class="st1" cx="1937.6" cy="1484.7" r="11"/>
				<circle class="st1" cx="2009.3" cy="1449.4" r="11"/>
				<circle class="st1" cx="2006" cy="1366.6" r="11"/>
				<circle class="st1" cx="1880.2" cy="1291.5" r="11"/>
				<circle class="st1" cx="1882.4" cy="1594" r="11"/>
			</g>
			<g>
				<polygon class="st1" points="153.5,2252.3 151.3,2252.3 151.3,1926.2 40.9,1877.6 40.9,1572.2 43.1,1572.2 43.1,1876.2 
					153.5,1924.8 				"/>
				<polygon class="st1" points="320.7,1977.4 318.5,1977.4 318.5,1651.3 208.1,1602.7 208.1,1297.3 210.3,1297.3 210.3,1601.3 
					320.7,1649.9 				"/>
				<polygon class="st1" points="501.2,2192.6 499,2192.6 499,1866.6 388.6,1818 388.6,1512.6 390.8,1512.6 390.8,1816.6 
					501.2,1865.2 				"/>
				<polygon class="st1" points="598.9,1965.8 596.7,1965.8 596.7,1639.7 486.3,1591.1 486.3,1285.7 488.5,1285.7 488.5,1589.7 
					598.9,1638.3 				"/>
				<rect x="102.7" y="1441.9" class="st1" width="2.2" height="463.7"/>
				<polygon class="st1" points="545.4,1616.4 543.2,1616.4 543.2,1481 616.1,1443.5 616.1,1361.3 618.2,1361.3 618.2,1444.8 
					545.4,1482.3 				"/>
				<polygon class="st1" points="268.3,1629.1 266.1,1629.1 266.1,1419.8 358.8,1368.4 360.5,1213.4 362.7,1213.4 361,1369.7 
					360.4,1370 268.3,1421 				"/>
				<circle class="st1" cx="151.3" cy="1925.5" r="14.4"/>
				<circle class="st1" cx="42" cy="1577.7" r="14.4"/>
				<circle class="st1" cx="207.6" cy="1602" r="14.4"/>
				<circle class="st1" cx="267.2" cy="1423.2" r="14.4"/>
				<circle class="st1" cx="212" cy="1300.6" r="14.4"/>
				<circle class="st1" cx="103.8" cy="1441.9" r="14.4"/>
				<circle class="st1" cx="361" cy="1215.6" r="11"/>
				<circle class="st1" cx="357.7" cy="1370.2" r="11"/>
				<circle class="st1" cx="389.7" cy="1517" r="11"/>
				<circle class="st1" cx="390.8" cy="1818.4" r="11"/>
				<circle class="st1" cx="497.9" cy="1867" r="11"/>
				<circle class="st1" cx="319.1" cy="1977.4" r="11"/>
				<circle class="st1" cx="598.4" cy="1964.1" r="11"/>
				<circle class="st1" cx="544.3" cy="1615.3" r="11"/>
				<circle class="st1" cx="597.3" cy="1638.4" r="11"/>
				<circle class="st1" cx="545.4" cy="1481.7" r="11"/>
				<circle class="st1" cx="617.1" cy="1446.4" r="11"/>
				<circle class="st1" cx="613.8" cy="1363.6" r="11"/>
				<circle class="st1" cx="488" cy="1288.5" r="11"/>
				<circle class="st1" cx="490.2" cy="1591" r="11"/>
			</g>
		</g>
	</g>
</g>
</svg>
