<?xml version="1.0" encoding="utf-8"?>
<!-- Generator: Adobe Illustrator 21.0.2, SVG Export Plug-In . SVG Version: 6.00 Build 0)  -->
<svg version="1.1" id="Layer_1" xmlns="http://www.w3.org/2000/svg" xmlns:xlink="http://www.w3.org/1999/xlink" x="0px" y="0px"
	 viewBox="0 0 1920 1080" style="enable-background:new 0 0 1920 1080;" xml:space="preserve">
<style type="text/css">
	.st0{clip-path:url(#SVGID_2_);fill:url(#SVGID_3_);stroke:url(#SVGID_4_);stroke-miterlimit:10;}
	
		.st1{clip-path:url(#SVGID_2_);fill:none;stroke:#F5FEFF;stroke-width:2;stroke-linecap:round;stroke-linejoin:round;stroke-miterlimit:10;}
	.st2{clip-path:url(#SVGID_2_);}
	.st3{fill:none;stroke:#F5FEFF;stroke-width:2;stroke-linecap:round;stroke-linejoin:round;}
	.st4{fill:none;stroke:#F5FEFF;stroke-width:2;stroke-linecap:round;stroke-linejoin:round;stroke-dasharray:12.26,12.26;}
	.st5{fill:none;stroke:#F5FEFF;stroke-width:2;stroke-linecap:round;stroke-linejoin:round;stroke-dasharray:12.2599,12.2599;}
	.st6{fill:none;stroke:#F5FEFF;stroke-linecap:round;stroke-linejoin:round;}
	.st7{fill:none;stroke:#F5FEFF;stroke-linecap:round;stroke-linejoin:round;stroke-dasharray:8.2243,8.2243;}
	
		.st8{clip-path:url(#SVGID_2_);fill:none;stroke:#F5FEFF;stroke-width:4;stroke-linecap:round;stroke-linejoin:round;stroke-miterlimit:10;}
	.st9{clip-path:url(#SVGID_2_);fill:none;stroke:#F5FEFF;stroke-linecap:round;stroke-linejoin:round;stroke-miterlimit:10;}
	.st10{fill:#F5FEFF;}
	.st11{fill:none;stroke:#F5FEFF;stroke-width:4;stroke-linecap:round;stroke-linejoin:round;stroke-miterlimit:10;}
	
		.st12{clip-path:url(#SVGID_2_);fill:none;stroke:#F5FEFF;stroke-width:2;stroke-linecap:round;stroke-linejoin:round;stroke-miterlimit:10;stroke-dasharray:12;}
	
		.st13{clip-path:url(#SVGID_2_);fill:none;stroke:#F5FEFF;stroke-width:2;stroke-linecap:round;stroke-linejoin:round;stroke-miterlimit:10;stroke-dasharray:8;}
	.st14{fill:none;stroke:#F5FEFF;stroke-linecap:round;stroke-linejoin:round;stroke-miterlimit:10;}
	
		.st15{fill:none;stroke:#F5FEFF;stroke-width:2;stroke-linecap:round;stroke-linejoin:round;stroke-miterlimit:10;stroke-dasharray:12;}
	
		.st16{clip-path:url(#SVGID_2_);fill:none;stroke:#F5FEFF;stroke-width:3;stroke-linecap:round;stroke-linejoin:round;stroke-miterlimit:10;stroke-dasharray:12;}
</style>
<g>
	<defs>
		<rect id="SVGID_1_" width="1920" height="1080"/>
	</defs>
	<clipPath id="SVGID_2_">
		<use xlink:href="#SVGID_1_"  style="overflow:visible;"/>
	</clipPath>
	<radialGradient id="SVGID_3_" cx="960" cy="540" r="778.8453" gradientUnits="userSpaceOnUse">
		<stop  offset="0" style="stop-color:#043B9D"/>
		<stop  offset="1" style="stop-color:#043B68"/>
	</radialGradient>
	<radialGradient id="SVGID_4_" cx="960" cy="540" r="779.3268" gradientUnits="userSpaceOnUse">
		<stop  offset="0" style="stop-color:#043B9D"/>
		<stop  offset="1" style="stop-color:#133068"/>
	</radialGradient>
	<rect class="st0" width="1920" height="1080"/>
	<polyline class="st1" points="243.4,147.8 150.5,201.4 57.6,147.8 57.6,-33 	"/>
	<g class="st2">
		<g>
			<g>
				<g>
					<polyline class="st3" points="479.3,660.7 479.3,657.7 476.6,656.2 					"/>
				</g>
				<g>
					<g>
						<line class="st3" x1="471.3" y1="653.1" x2="466.1" y2="650.1"/>
						<line class="st4" x1="455.5" y1="644" x2="227.2" y2="512.2"/>
						<line class="st3" x1="221.9" y1="509.1" x2="216.7" y2="506.1"/>
					</g>
				</g>
				<g>
					<polyline class="st3" points="214,504.6 211.4,503 208.7,504.6 					"/>
				</g>
				<g>
					<g>
						<line class="st3" x1="203.4" y1="507.7" x2="198.2" y2="510.7"/>
						<line class="st5" x1="187.5" y1="516.8" x2="-40.7" y2="648.6"/>
					</g>
				</g>
				<g>
					<g>
						<line class="st4" x1="-32.7" y1="980.8" x2="195.6" y2="1112.6"/>
					</g>
				</g>
				<g>
					<g>
						<line class="st5" x1="235.2" y1="1108" x2="463.5" y2="976.2"/>
						<line class="st3" x1="468.8" y1="973.1" x2="474" y2="970.1"/>
					</g>
				</g>
				<g>
					<polyline class="st3" points="476.6,968.6 479.3,967.1 479.3,964 					"/>
				</g>
				<g>
					<g>
						<line class="st3" x1="479.3" y1="957.8" x2="479.3" y2="951.8"/>
						<line class="st4" x1="479.3" y1="939.6" x2="479.3" y2="676"/>
						<line class="st3" x1="479.3" y1="669.8" x2="479.3" y2="663.8"/>
					</g>
				</g>
			</g>
		</g>
	</g>
	<g class="st2">
		<g>
			<g>
				<g>
					<g>
						<line class="st4" x1="1935.2" y1="166.2" x2="1706.9" y2="34.5"/>
						<line class="st3" x1="1701.6" y1="31.4" x2="1696.4" y2="28.4"/>
					</g>
				</g>
				<g>
					<polyline class="st3" points="1693.7,26.9 1691.1,25.3 1688.4,26.9 					"/>
				</g>
				<g>
					<g>
						<line class="st3" x1="1683.1" y1="29.9" x2="1677.9" y2="32.9"/>
						<line class="st5" x1="1667.3" y1="39.1" x2="1439" y2="170.9"/>
						<line class="st3" x1="1433.7" y1="173.9" x2="1428.5" y2="176.9"/>
					</g>
				</g>
				<g>
					<polyline class="st3" points="1425.8,178.5 1423.2,180 1423.2,183.1 					"/>
				</g>
				<g>
					<g>
						<line class="st3" x1="1423.2" y1="189.3" x2="1423.2" y2="195.3"/>
						<line class="st4" x1="1423.2" y1="207.5" x2="1423.2" y2="471.1"/>
						<line class="st3" x1="1423.2" y1="477.2" x2="1423.2" y2="483.2"/>
					</g>
				</g>
				<g>
					<polyline class="st3" points="1423.2,486.3 1423.2,489.4 1425.8,490.9 					"/>
				</g>
				<g>
					<g>
						<line class="st3" x1="1431.2" y1="494" x2="1436.4" y2="497"/>
						<line class="st4" x1="1447" y1="503.1" x2="1675.3" y2="634.9"/>
						<line class="st3" x1="1680.6" y1="638" x2="1685.8" y2="641"/>
					</g>
				</g>
				<g>
					<polyline class="st3" points="1688.5,642.5 1691.1,644 1693.7,642.5 					"/>
				</g>
				<g>
					<g>
						<line class="st3" x1="1699.1" y1="639.4" x2="1704.3" y2="636.4"/>
						<line class="st5" x1="1714.9" y1="630.3" x2="1943.2" y2="498.5"/>
					</g>
				</g>
			</g>
		</g>
	</g>
	<g class="st2">
		<g>
			<g>
				<g>
					<polyline class="st6" points="675.3,826.3 675.3,825.4 674.5,825 					"/>
				</g>
				<g>
					<g>
						<line class="st6" x1="673" y1="824.2" x2="669.6" y2="822.2"/>
						<line class="st7" x1="662.5" y1="818" x2="609" y2="787.2"/>
						<line class="st6" x1="605.5" y1="785.1" x2="602" y2="783.1"/>
					</g>
				</g>
				<g>
					<polyline class="st6" points="601.3,782.7 600.5,782.3 599.8,782.7 					"/>
				</g>
				<g>
					<g>
						<line class="st6" x1="598.3" y1="783.6" x2="594.8" y2="785.6"/>
						<line class="st7" x1="587.7" y1="789.7" x2="534.3" y2="820.5"/>
						<line class="st6" x1="530.7" y1="822.6" x2="527.3" y2="824.6"/>
					</g>
				</g>
				<g>
					<polyline class="st6" points="526.5,825 525.8,825.4 525.8,826.3 					"/>
				</g>
				<g>
					<g>
						<line class="st6" x1="525.8" y1="828" x2="525.8" y2="832"/>
						<line class="st7" x1="525.8" y1="840.2" x2="525.8" y2="901.9"/>
						<line class="st6" x1="525.8" y1="906" x2="525.8" y2="910"/>
					</g>
				</g>
				<g>
					<polyline class="st6" points="525.8,910.9 525.8,911.8 526.5,912.2 					"/>
				</g>
				<g>
					<g>
						<line class="st6" x1="528" y1="913" x2="531.5" y2="915"/>
						<line class="st7" x1="538.6" y1="919.2" x2="592" y2="950"/>
						<line class="st6" x1="595.6" y1="952" x2="599.1" y2="954"/>
					</g>
				</g>
				<g>
					<polyline class="st6" points="599.8,954.5 600.5,954.9 601.3,954.5 					"/>
				</g>
				<g>
					<g>
						<line class="st6" x1="602.8" y1="953.6" x2="606.2" y2="951.6"/>
						<line class="st7" x1="613.4" y1="947.5" x2="666.8" y2="916.7"/>
						<line class="st6" x1="670.3" y1="914.6" x2="673.8" y2="912.6"/>
					</g>
				</g>
				<g>
					<polyline class="st6" points="674.5,912.2 675.3,911.7 675.3,910.9 					"/>
				</g>
				<g>
					<g>
						<line class="st6" x1="675.3" y1="909.2" x2="675.3" y2="905.2"/>
						<line class="st7" x1="675.3" y1="896.9" x2="675.3" y2="835.3"/>
						<line class="st6" x1="675.3" y1="831.2" x2="675.3" y2="827.2"/>
					</g>
				</g>
			</g>
		</g>
	</g>
	<polygon class="st8" points="166.2,971.1 33.5,894.5 -99.3,971.1 -99.2,1124.4 33.5,1201 166.2,1124.4 	"/>
	<polygon class="st8" points="1652.4,-67.8 1491.1,-161 1329.7,-67.8 1329.7,118.5 1491.1,211.7 1652.4,118.5 	"/>
	<polygon class="st9" points="109.8,543.9 18.4,491.1 -73,543.9 -73,649.5 18.4,702.2 109.8,649.4 	"/>
	<polygon class="st1" points="809.5,996.2 722,945.6 634.4,996.2 634.4,1097.3 722,1147.8 809.5,1097.3 	"/>
	<polygon class="st1" points="2067.2,558.5 1979.7,507.9 1892.1,558.5 1892.1,659.6 1979.7,710.1 2067.2,659.6 	"/>
	<polygon class="st9" points="1894.3,288.9 1817.6,244.6 1741,288.9 1741,377.4 1817.7,421.6 1894.3,377.4 	"/>
	<polygon class="st1" points="918.5,1058.6 855,1021.9 791.5,1058.6 791.5,1132 855,1168.7 918.5,1132 	"/>
	<polygon class="st1" points="277.6,439.5 214,402.8 150.5,439.5 150.5,512.8 214,549.5 277.6,512.8 	"/>
	<polygon class="st9" points="404.5,556 292,491.1 179.6,556 179.6,685.8 292.1,750.7 404.5,685.8 	"/>
	<polygon class="st9" points="2032.4,704.3 1920,639.4 1807.6,704.3 1807.6,834.1 1920,899 2032.4,834.1 	"/>
	<polyline class="st1" points="117.7,732.1 117.7,885.4 250.4,962 383.1,962 	"/>
	<g class="st2">
		<ellipse transform="matrix(0.8033 -0.5956 0.5956 0.8033 -361.8848 972.285)" class="st10" cx="1291" cy="1034" rx="7" ry="7"/>
		
			<ellipse transform="matrix(0.8033 -0.5956 0.5956 0.8033 -361.8848 972.2841)" class="st11" cx="1291" cy="1034" rx="12.7" ry="12.7"/>
	</g>
	<g class="st2">
		
			<ellipse transform="matrix(0.8033 -0.5956 0.5956 0.8033 -280.8472 1077.6718)" class="st10" cx="1491.1" cy="964" rx="7" ry="7"/>
		
			<ellipse transform="matrix(0.8033 -0.5956 0.5956 0.8033 -280.8473 1077.6708)" class="st11" cx="1491.1" cy="964" rx="12.7" ry="12.7"/>
	</g>
	<g class="st2">
		
			<ellipse transform="matrix(0.8033 -0.5956 0.5956 0.8033 -114.6569 1274.5055)" class="st10" cx="1872.1" cy="810.8" rx="7" ry="7"/>
		
			<ellipse transform="matrix(0.8033 -0.5956 0.5956 0.8033 -114.6571 1274.5044)" class="st11" cx="1872.1" cy="810.8" rx="12.7" ry="12.7"/>
	</g>
	<g class="st2">
		
			<ellipse transform="matrix(0.8033 -0.5956 0.5956 0.8033 -389.3031 845.2681)" class="st10" cx="1085" cy="1012" rx="8.7" ry="8.7"/>
	</g>
	<g class="st2">
		
			<ellipse transform="matrix(0.8033 -0.5956 0.5956 0.8033 -480.1345 523.939)" class="st10" cx="553.1" cy="988.8" rx="8.7" ry="8.7"/>
	</g>
	<g class="st2">
		<polyline class="st11" points="292,643.6 168.1,715.1 168.1,858.2 292.1,929.8 416,858.2 		"/>
		<g>
			
				<ellipse transform="matrix(0.8033 -0.5956 0.5956 0.8033 -325.1824 302.5756)" class="st10" cx="295.5" cy="643.6" rx="10.8" ry="10.8"/>
		</g>
		<g>
			
				<ellipse transform="matrix(0.8033 -0.5956 0.5956 0.8033 -429.0802 416.4852)" class="st10" cx="416" cy="857.8" rx="10.8" ry="10.8"/>
		</g>
	</g>
	<polyline class="st1" points="-37,890 215,1034 1291,1034 	"/>
	<polyline class="st1" points="183.9,994.2 215,1012 1085,1012 	"/>
	<polyline class="st1" points="2077,-51.6 1825,92.4 749,92.4 	"/>
	<polyline class="st1" points="1856.1,44.4 1825,62.2 955,62.2 	"/>
	<polyline class="st1" points="33.5,402.8 33.5,860 252.7,988.8 550.6,988.8 	"/>
	<g class="st2">
		
			<ellipse transform="matrix(0.8033 -0.5956 0.5956 0.8033 -233.2961 99.1642)" class="st10" cx="33.5" cy="402.8" rx="8.7" ry="8.7"/>
	</g>
	<g class="st2">
		
			<ellipse transform="matrix(0.8033 -0.5956 0.5956 0.8033 -39.2723 173.7307)" class="st10" cx="243.4" cy="146.3" rx="8.7" ry="8.7"/>
	</g>
	<g class="st2">
		<ellipse transform="matrix(0.8033 -0.5956 0.5956 0.8033 92.3254 464.256)" class="st10" cx="749" cy="92.4" rx="8.7" ry="8.7"/>
	</g>
	<g class="st2">
		
			<ellipse transform="matrix(0.8033 -0.5956 0.5956 0.8033 266.9044 1118.2671)" class="st10" cx="1826.4" cy="155.1" rx="8.7" ry="8.7"/>
	</g>
	<g class="st2">
		
			<ellipse transform="matrix(0.8033 -0.5956 0.5956 0.8033 -3.8891 1120.063)" class="st10" cx="1693.7" cy="565.9" rx="8.7" ry="8.7"/>
	</g>
	<g class="st2">
		<ellipse transform="matrix(0.8033 -0.5956 0.5956 0.8033 -408.6504 212.6881)" class="st10" cx="117.7" cy="725" rx="6" ry="6"/>
		
			<ellipse transform="matrix(0.8033 -0.5956 0.5956 0.8033 -408.6501 212.6878)" class="st11" cx="117.7" cy="725" rx="11" ry="11"/>
	</g>
	<g class="st2">
		
			<ellipse transform="matrix(0.8033 -0.5956 0.5956 0.8033 -130.6096 84.7512)" class="st10" cx="63" cy="240.1" rx="7.8" ry="7.8"/>
		
			<ellipse transform="matrix(0.8033 -0.5956 0.5956 0.8033 -130.6095 84.7511)" class="st11" cx="63" cy="240.1" rx="14.3" ry="14.3"/>
	</g>
	<g class="st2">
		
			<ellipse transform="matrix(0.8033 -0.5956 0.5956 0.8033 150.7955 581.0173)" class="st10" cx="955" cy="62.2" rx="7.8" ry="7.8"/>
		
			<ellipse transform="matrix(0.8033 -0.5956 0.5956 0.8033 150.7952 581.0169)" class="st11" cx="955" cy="62.2" rx="14.3" ry="14.3"/>
	</g>
	<g class="st2">
		
			<ellipse transform="matrix(0.8033 -0.5956 0.5956 0.8033 -497.5847 417.4131)" class="st10" cx="383.1" cy="962" rx="6.9" ry="6.9"/>
		
			<ellipse transform="matrix(0.8033 -0.5956 0.5956 0.8033 -497.5844 417.4126)" class="st11" cx="383.1" cy="962" rx="12.6" ry="12.6"/>
	</g>
	<line class="st12" x1="63" y1="851.3" x2="63" y2="240.1"/>
	<line class="st13" x1="809.5" y1="964" x2="1491.1" y2="964"/>
	<g class="st2">
		<line class="st14" x1="130.8" y1="240.1" x2="130.8" y2="365"/>
		<line class="st14" x1="170.2" y1="240.1" x2="170.2" y2="365"/>
		<line class="st15" x1="205.5" y1="240.1" x2="205.5" y2="365"/>
	</g>
	<g class="st2">
		<line class="st14" x1="1758.8" y1="702.9" x2="1634" y2="702.9"/>
		<line class="st14" x1="1758.8" y1="742.3" x2="1634" y2="742.3"/>
		<line class="st15" x1="1758.8" y1="777.5" x2="1634" y2="777.5"/>
	</g>
	<line class="st16" x1="1872.1" y1="167" x2="1872.1" y2="803.6"/>
	<polyline class="st1" points="1826.4,155.1 1826.4,494 1693.7,565.9 	"/>
</g>
</svg>
