<svg xmlns="http://www.w3.org/2000/svg" viewBox="0 0 585.68 77.37"><defs><style>.cls-1{fill:#00a1e9;}</style></defs><g id="图层_2" data-name="图层 2"><g id="图层_1-2" data-name="图层 1"><path class="cls-1" d="M585.68,54.4v-.28s0,.07,0,.12S585.68,54.35,585.68,54.4Z"/><path class="cls-1" d="M585.68,23.34A23.29,23.29,0,0,0,562.41.08H513.18A3,3,0,0,0,510.23,3V14.14a3,3,0,0,0,2.95,2.94h46.64a3,3,0,0,1,2.94,3v4.13a1.24,1.24,0,0,1-1,1.23l-39.79,5.76c-14.54,2.32-23.2,10.36-23.26,23.09a23.29,23.29,0,0,0,23.26,23.13h40.5a23.28,23.28,0,0,0,23.24-23.13Zm-25.86,37h-35.3a2.94,2.94,0,0,1-2.94-2.93V51.11a2.71,2.71,0,0,1,2.57-2.89l37.19-5.75a1.18,1.18,0,0,1,1,.26,1.28,1.28,0,0,1,.44.94V57.42A2.93,2.93,0,0,1,559.82,60.35Z"/><path class="cls-1" d="M241.88,17.08h43a2.94,2.94,0,0,0,2.94-2.94V3A3,3,0,0,0,284.86.08H239.29A23.27,23.27,0,0,0,216,23.34V54.12a23.28,23.28,0,0,0,23.25,23.25h45.57a3,3,0,0,0,2.94-3V63.31h0a3,3,0,0,0-2.94-3h-43a2.94,2.94,0,0,1-3-2.93V20A3,3,0,0,1,241.88,17.08Z"/><path class="cls-1" d="M318.4,17.08h42.94a2.94,2.94,0,0,0,3-2.94V3a2.94,2.94,0,0,0-3-2.95H315.79a23.29,23.29,0,0,0-23.26,23.26V54.12a23.3,23.3,0,0,0,23.26,23.25h45.55a2.94,2.94,0,0,0,3-3V63.31h0a2.94,2.94,0,0,0-3-3H318.4a2.94,2.94,0,0,1-3-2.93V20A3,3,0,0,1,318.4,17.08Z"/><path class="cls-1" d="M445.13,0h-17a3,3,0,0,0-3,3V57.41a2.94,2.94,0,0,1-2.94,2.94H395.47a3,3,0,0,1-3-2.94V3a3,3,0,0,0-2.95-3h-17a3,3,0,0,0-3,3V54.12a23.3,23.3,0,0,0,23.28,23.25h31.95a23.29,23.29,0,0,0,23.26-23.25V3A3,3,0,0,0,445.13,0Z"/><path class="cls-1" d="M210.72,54.4v0Z"/><path class="cls-1" d="M210.72,23.34A23.27,23.27,0,0,0,187.46.08h-55.2a3,3,0,0,0-3,2.95V14.14a3,3,0,0,0,3,2.94h52.61a3,3,0,0,1,2.95,3v4.13a1.26,1.26,0,0,1-1.08,1.23L147,31.15c-14.53,2.32-23.18,10.36-23.27,23.09A23.31,23.31,0,0,0,147,77.37h40.49a23.29,23.29,0,0,0,23.26-23.13Zm-25.85,37h-35.3a2.94,2.94,0,0,1-3-2.93V51.11a2.71,2.71,0,0,1,2.57-2.89l37.21-5.75a1.25,1.25,0,0,1,1,.26,1.35,1.35,0,0,1,.43.94V57.42A2.94,2.94,0,0,1,184.87,60.35Z"/><path class="cls-1" d="M96.59.08H23.26A23.29,23.29,0,0,0,0,23.33V74.42a3,3,0,0,0,3,3H20a3,3,0,0,0,3-3V20a3,3,0,0,1,3-2.91H45.53a3,3,0,0,1,3,3V74.42a2.93,2.93,0,0,0,2.94,3h17a3,3,0,0,0,3-3V20h0a3,3,0,0,1,2.95-3H94a2.94,2.94,0,0,1,3,3V74.42a3,3,0,0,0,3,3h17a3,3,0,0,0,3-3V23.33A23.29,23.29,0,0,0,96.59.08Z"/><path class="cls-1" d="M504.27.08H476.65a23.28,23.28,0,0,0-23.26,23.26V74.42a3,3,0,0,0,3,3h17a2.93,2.93,0,0,0,2.92-3V20a3,3,0,0,1,3-3h20.32A2.93,2.93,0,0,0,502.41,15l4-11.7A2.23,2.23,0,0,0,504.27.08Z"/></g></g></svg>