<svg aria-hidden="true" xmlns="http://www.w3.org/2000/svg">
  <defs>
    <symbol id="antenna" viewBox="0 0 30 32">
      <path fill="#212121" style="fill:var(--color1, #212121)" d="m29.859 22.098-8.443-8.505.937-4.615c.242.094.499.144.758.146h.006a2.159 2.159 0 1 0-2.008-1.435l-4.96.605L8.058.161a.534.534 0 0 0-.377-.16.532.532 0 0 0-.373.155L5.795 1.66a.534.534 0 0 0 0 .754l.814.826a14.943 14.943 0 0 0 2.519 17.663.513.513 0 0 0 .146.098c-.034.18-.051.364-.052.547v6.187h-6.4a2.67 2.67 0 0 0-2.667 2.667v1.067c0 .295.239.533.533.533h24.533a.533.533 0 0 0 .533-.533v-1.067a2.67 2.67 0 0 0-2.667-2.667h-6.4v-2.742a15.09 15.09 0 0 0 3.049.32 14.854 14.854 0 0 0 7.04-1.783l.818.823a.534.534 0 0 0 .377.16.532.532 0 0 0 .373-.155l1.513-1.504a.534.534 0 0 0 0-.754zM22.366 6.233a1.066 1.066 0 1 1 .752 1.822h-.003a1.067 1.067 0 0 1-.747-1.823h-.002zM21.11 9.738l-.598 2.946-1.175-1.182 1.774-1.763zm-.606-.902-1.92 1.909-1.485-1.493 3.405-.415zM23.09 28.8a1.6 1.6 0 0 1 1.6 1.6v.533H1.223V30.4a1.6 1.6 0 0 1 1.6-1.6H23.09zm-7.467-2.133v1.067H10.29v-1.067h5.333zM10.29 25.6v-4.053c0-1.294 1.196-2.347 2.667-2.347s2.667 1.053 2.667 2.347V25.6h-5.333zm6.4-1.696v-2.357c0-1.882-1.675-3.413-3.733-3.413a3.8 3.8 0 0 0-3.281 1.786A13.87 13.87 0 0 1 7.397 4.033l18.602 18.708a13.818 13.818 0 0 1-9.309 1.163zm11.289-.684L6.922 2.039l.755-.752 7.935 7.98c.004 0 .006.007.01.01l13.115 13.191-.757.752z"/>
      <path fill="#2196f3" style="fill:var(--color2, #2196f3)" d="M12.961 20.267h-.005a1.6 1.6 0 1 0-.004 3.2h.005a1.6 1.6 0 1 0 .004-3.2zm.374 1.978a.534.534 0 0 1-.752-.756.534.534 0 0 1 .373-.155.532.532 0 0 1 .373.911h.005z"/>
    </symbol>
    <symbol id="clock" viewBox="0 0 32 32">
      <path fill="#212121" style="fill:var(--color1, #212121)" d="M31.297 15.301C31.295 6.849 24.442-.002 15.989 0S.686 6.855.688 15.308a15.304 15.304 0 0 0 10.649 14.576.662.662 0 0 0 .529-.065.637.637 0 0 0 .283-.356l3.865-12.25a1.912 1.912 0 1 0-.84-3.635l-5.106-5.107a.637.637 0 0 0-.902.902l5.103 5.109a1.876 1.876 0 0 0 .536 2.309l-3.683 11.673C3.844 25.783.118 17.71 2.799 10.432S13.553-.572 20.831 2.109s11.004 10.754 8.323 18.032a14.042 14.042 0 0 1-7.462 7.973l-.398-1.874a.638.638 0 0 0-1.048-.344l-3.837 3.426a.637.637 0 0 0 .231 1.084l4.899 1.563a.638.638 0 0 0 .819-.74l-.391-1.839a15.255 15.255 0 0 0 9.329-14.089zm-15.305-.637a.638.638 0 1 1 0 1.277.638.638 0 0 1 0-1.277zm2.101 14.864 2.184-1.948.603 2.84-2.787-.892z"/>
      <path fill="#2196f3" style="fill:var(--color2, #2196f3)" d="M15.354 3.185V4.46a.638.638 0 1 0 1.276 0V3.185a.638.638 0 0 0-1.276 0zM3.876 14.664a.638.638 0 0 0 0 1.276h1.275a.638.638 0 1 0 0-1.276H3.876zM28.108 15.939a.638.638 0 1 0 0-1.276h-1.275a.638.638 0 0 0 0 1.276h1.275z"/>
    </symbol>
    <symbol id="diagram" viewBox="0 0 32 32">
      <path fill="#2196f3" style="fill:var(--color2, #2196f3)" d="M14.926 14.965h1.066v4.798h-1.066v-4.797zM19.19 17.097h1.066v2.665H19.19v-2.665zM10.661 18.696h1.066v1.066h-1.066v-1.066zM7.463 18.163h1.066v1.599H7.463v-1.599z"/>
      <path fill="#212121" style="fill:var(--color1, #212121)" d="M1.599 28.291h25.587a1.6 1.6 0 0 0 1.599-1.599V24.56a1.6 1.6 0 0 0-1.599-1.599h-.533V9.668L29.681 6.8a1.608 1.608 0 1 0-.746-.763L26.654 8.2V6.97a1.6 1.6 0 0 0-1.599-1.599H3.733A1.6 1.6 0 0 0 2.134 6.97v15.992h-.533a1.6 1.6 0 0 0-1.599 1.599v2.132a1.6 1.6 0 0 0 1.599 1.599zM30.384 4.837a.533.533 0 1 1 0 1.067.533.533 0 0 1 0-1.067zM3.198 6.969c0-.294.239-.533.533-.533h21.322c.294 0 .533.239.533.533v2.239l-1.066 1.013V8.035a.533.533 0 0 0-.533-.533H4.797a.533.533 0 0 0-.533.533v13.326c0 .294.239.533.533.533h19.19a.533.533 0 0 0 .533-.533v-9.674l1.066-1.01v12.284H3.198V6.969zm4.798 6.93a1.598 1.598 0 1 0 1.107 2.749l1.853.93a.532.532 0 0 0 .636-.123l3.939-4.431 3.872 2.901a.533.533 0 0 0 .686-.039l3.365-3.188v8.131H5.33V8.569h18.124v2.66l-3.771 3.572-3.904-2.927a.533.533 0 0 0-.718.072l-3.993 4.493-1.493-.746c.011-.064.018-.129.02-.193a1.6 1.6 0 0 0-1.599-1.599zm.533 1.599a.533.533 0 1 1-1.067 0 .533.533 0 0 1 1.067 0zm3.198 8.529h5.331v.533a.533.533 0 0 1-.533.533h-4.264a.533.533 0 0 1-.533-.533v-.533zm-10.661.533c0-.294.239-.533.533-.533h9.062v.533a1.6 1.6 0 0 0 1.599 1.599h4.264a1.6 1.6 0 0 0 1.599-1.599v-.533h9.062c.294 0 .533.239.533.533v2.132a.533.533 0 0 1-.533.533H1.598a.533.533 0 0 1-.533-.533V24.56z"/>
    </symbol>
    <symbol id="astronaut" viewBox="0 0 32 32">
      <path fill="#2196f3" style="fill:var(--color2, #2196f3)" d="M31.974 4.524a.534.534 0 0 0-.43-.363l-1.91-.278-.855-1.731c-.179-.365-.777-.365-.956 0l-.855 1.731-1.91.278a.535.535 0 0 0-.296.91l1.383 1.348-.326 1.903c-.034.2.048.402.212.522a.53.53 0 0 0 .562.04l1.709-.899 1.709.899a.536.536 0 0 0 .775-.563l-.326-1.903 1.383-1.348a.536.536 0 0 0 .135-.547zm-2.463 1.327a.534.534 0 0 0-.153.472l.191 1.114-1-.526a.533.533 0 0 0-.498 0l-1.001.526.191-1.114a.534.534 0 0 0-.153-.472l-.81-.789 1.119-.163a.532.532 0 0 0 .402-.292l.5-1.013.5 1.013a.535.535 0 0 0 .402.292l1.119.163-.809.789zM26.134 20.522h-1.067v1.067h1.067v-1.067zM26.134 22.656h-1.067v1.067h1.067v-1.067zM27.2 21.589h-1.067v1.067H27.2v-1.067zM25.067 21.589H24v1.067h1.067v-1.067zM22.4 26.389h-1.067v1.067H22.4v-1.067zM22.4 28.522h-1.067v1.067H22.4v-1.067zM23.467 27.456H22.4v1.067h1.067v-1.067zM21.333 27.456h-1.067v1.067h1.067v-1.067zM16 24.256h-1.067v1.067H16v-1.067zM16 26.389h-1.067v1.067H16v-1.067zM17.067 25.322H16v1.067h1.067v-1.067zM14.933 25.322h-1.067v1.067h1.067v-1.067zM5.867 6.122H4.8v1.067h1.067V6.122zM5.867 8.255H4.8v1.067h1.067V8.255z"/>
      <path fill="#2196f3" style="fill:var(--color2, #2196f3)" d="M6.933 7.189H5.866v1.067h1.067V7.189zM4.8 7.189H3.733v1.067H4.8V7.189z"/>
      <path fill="#212121" style="fill:var(--color1, #212121)" d="M24.715 14.159a1.775 1.775 0 0 0-1.188-.705 1.778 1.778 0 0 0-1.34.352l-1.252.96-1.898 1.417-1.358-.541c2.421-1.086 4.114-3.508 4.114-6.32 0-3.823-3.123-6.933-6.961-6.933s-6.961 3.11-6.961 6.933a6.86 6.86 0 0 0 1.12 3.758l-2.764-.024h-.005c-.009 0-.015.004-.023.005a.515.515 0 0 0-.155.031l-.038.013c-.006.003-.013.003-.019.006l-3.233 1.596-.001.001-1.893.911a.397.397 0 0 0-.063.035 1.779 1.779 0 0 0-.598 2.295c.22.429.595.745 1.056.889a1.776 1.776 0 0 0 1.378-.128l1.388-.738 2.264-1.169 1.357-.008L2.2 22.211l-.002.001-1.339 1.333c-.316.315-.49.732-.49 1.178s.174.863.49 1.179c.325.323.752.485 1.179.485s.854-.162 1.18-.485l1.314-1.309 1.741-1.3.901.897-1.762 1.754-.002.001-1.339 1.333c-.316.315-.49.732-.49 1.178s.174.863.49 1.179c.325.323.753.485 1.18.485s.855-.162 1.18-.485l3.482-3.467.001-.002 1.01-1-.004-.004c.006-.006.015-.009.022-.015l5.166-5.658 3.471.494a.52.52 0 0 0 .262-.033c.018-.006.033-.015.05-.023.019-.01.039-.015.058-.027l3.213-2.133c.012-.008.018-.021.029-.029.013-.01.029-.014.041-.026l1.271-1.191c.662-.62.753-1.635.212-2.362zM2.13 17.77a.714.714 0 0 1-.558.052.717.717 0 0 1-.213-1.26l1.314-.632.449 1.312-.992.528zm3.498-1.828-1.548.8-.439-1.283 2.027-1.001-.04 1.484zm15.099-6.62a5.79 5.79 0 0 1-.599 2.559l-4.181-1.899a1.863 1.863 0 0 0-.788-1.388l1.464-4.86c2.378.756 4.105 2.974 4.105 5.588zm-11.789 0c0-3.235 2.644-5.867 5.894-5.867.253 0 .5.021.745.052l-1.432 4.754c-.019-.001-.037-.006-.057-.006-1.033 0-1.873.837-1.873 1.867s.84 1.867 1.873 1.867c.694 0 1.294-.383 1.618-.945l3.862 1.755a5.894 5.894 0 0 1-4.737 2.39c-3.25 0-5.894-2.632-5.894-5.867zm5.956.8c0 .441-.362.8-.806.8s-.806-.359-.806-.8c0-.441.362-.8.806-.8s.806.359.806.8zM2.465 25.146a.608.608 0 0 1-.854.001.592.592 0 0 1 0-.844l.962-.958.851.848-.959.955zm3.214 3.734a.608.608 0 0 1-.855.001.592.592 0 0 1 0-.844l.963-.959.852.848-.96.955zm3.481-3.469-.002.001-1.765 1.76-.852-.848 1.763-1.755.002-.001c.04-.04.065-.088.09-.135.007-.014.02-.026.026-.04.017-.041.019-.085.026-.129.003-.025.014-.047.014-.073 0-.036-.013-.07-.02-.106-.006-.032-.006-.065-.019-.095a.55.55 0 0 0-.091-.138c-.01-.012-.014-.027-.025-.038h-.001l-.001-.002-1.607-1.6c-.017-.017-.039-.024-.058-.038a.507.507 0 0 0-.087-.058.515.515 0 0 0-.093-.033.507.507 0 0 0-.103-.02.5.5 0 0 0-.095.005.53.53 0 0 0-.104.02.477.477 0 0 0-.094.045c-.02.011-.042.015-.061.029L4.23 23.486l-.901-.897 2.399-2.386 4.361 4.289-.928.919zm6.819-7.017c-.015-.002-.03.004-.045.003a.556.556 0 0 0-.3.075.492.492 0 0 0-.083.061c-.013.011-.028.017-.04.029l-4.698 5.146-4.328-4.257 2.833-2.818a.534.534 0 0 0-.379-.911v-.001l-2.219.013.028-1.607 3.104.027a6.947 6.947 0 0 0 4.981 2.101c.437 0 .864-.045 1.279-.123.04.032.079.065.13.085l2.41.96.331 1.644-3.003-.427zm4.041.178-.313-1.558 1.446-1.08.947 1.257-2.08 1.381zm3.754-2.831-.838.785-.931-1.236.831-.637a.735.735 0 0 1 .543-.143.718.718 0 0 1 .48.284.713.713 0 0 1-.085.947z"/>
      <path fill="#212121" style="fill:var(--color1, #212121)" d="m13.602 18.544-2.143-2.133a.534.534 0 0 0-.753 0l-2.142 2.133a.537.537 0 0 0 0 .756l2.142 2.133a.536.536 0 0 0 .753 0l2.143-2.133a.535.535 0 0 0 0-.756zm-2.519 1.759-1.387-1.381 1.387-1.381 1.387 1.381-1.387 1.381zM17.164 5.071l-.258 1.036c.071.018 1.738.452 1.738 2.149h1.067c0-2.017-1.666-2.965-2.547-3.185zM19.711 9.322h-1.067v1.067h1.067V9.322z"/>
    </symbol>
    <symbol id="mail" viewBox="0 0 43 32">
      <path d="M38.667 0H4C1.794 0 0 1.794 0 4v24c0 2.206 1.794 4 4 4h34.667c2.206 0 4-1.794 4-4V4c0-2.206-1.794-4-4-4zm0 2.667c.181 0 .353.038.511.103L21.334 18.236 3.49 2.77a1.32 1.32 0 0 1 .511-.103h34.667zm0 26.666H4A1.334 1.334 0 0 1 2.667 28V5.587L20.46 21.008a1.335 1.335 0 0 0 1.748 0L40.001 5.587V28c0 .736-.598 1.333-1.333 1.333z"/>
    </symbol>
    <symbol id="smartphone" viewBox="0 0 20 32">
      <path d="M17 0H3C1.346 0 0 1.346 0 3v26c0 1.654 1.346 3 3 3h14c1.654 0 3-1.346 3-3V3c0-1.654-1.346-3-3-3zM3 2h14a1 1 0 0 1 1 1v21H2V3a1 1 0 0 1 1-1zm14 28H3a1 1 0 0 1-1-1v-3h16v3a1 1 0 0 1-1 1z"/>
      <path d="M4.707 27.478c.391.365.391.956 0 1.321s-1.024.365-1.414 0c-.391-.365-.391-.956 0-1.321s1.024-.365 1.414 0z"/>
    </symbol>
    <symbol id="instagram" viewBox="0 0 32 32">
      <path d="M31.969 9.408c-.075-1.7-.35-2.869-.744-3.882a7.806 7.806 0 0 0-1.851-2.838A7.867 7.867 0 0 0 26.542.844C25.523.45 24.36.175 22.66.1 20.947.019 20.403 0 16.059 0s-4.888.019-6.595.094c-1.7.075-2.869.35-3.882.744a7.803 7.803 0 0 0-2.838 1.85A7.867 7.867 0 0 0 .9 5.52C.506 6.539.231 7.702.156 9.402c-.081 1.713-.1 2.257-.1 6.601s.019 4.888.094 6.595c.075 1.7.35 2.869.744 3.882a7.895 7.895 0 0 0 1.85 2.838 7.867 7.867 0 0 0 2.832 1.844c1.019.394 2.182.669 3.882.744 1.706.075 2.25.094 6.595.094s4.888-.019 6.595-.094c1.7-.075 2.869-.35 3.882-.744a8.184 8.184 0 0 0 4.682-4.682c.394-1.019.669-2.182.744-3.882.075-1.707.094-2.251.094-6.595s-.006-4.888-.081-6.595zm-2.882 13.065c-.069 1.563-.331 2.407-.55 2.969a5.31 5.31 0 0 1-3.038 3.038c-.563.219-1.413.481-2.969.55-1.688.075-2.194.094-6.464.094s-4.782-.019-6.464-.094c-1.563-.069-2.407-.331-2.969-.55a4.926 4.926 0 0 1-1.838-1.194 4.974 4.974 0 0 1-1.194-1.838c-.219-.563-.481-1.413-.55-2.969-.075-1.688-.094-2.194-.094-6.464s.019-4.782.094-6.464c.069-1.563.331-2.407.55-2.969a4.868 4.868 0 0 1 1.2-1.838A4.974 4.974 0 0 1 6.639 3.55c.563-.219 1.413-.481 2.969-.55 1.688-.075 2.194-.094 6.464-.094 4.276 0 4.782.019 6.464.094 1.563.069 2.407.331 2.969.55a4.914 4.914 0 0 1 1.838 1.194 4.974 4.974 0 0 1 1.194 1.838c.219.563.481 1.413.55 2.969.075 1.688.094 2.194.094 6.464s-.019 4.77-.094 6.458z"/>
      <path d="M16.059 7.783c-4.538 0-8.22 3.682-8.22 8.22s3.682 8.22 8.22 8.22c4.539 0 8.22-3.682 8.22-8.22s-3.682-8.22-8.22-8.22zm0 13.552a5.333 5.333 0 0 1 0-10.664 5.333 5.333 0 0 1 0 10.664zM26.524 7.458a1.919 1.919 0 1 1-3.838 0 1.919 1.919 0 0 1 3.838 0z"/>
    </symbol>
    <symbol id="twitter" viewBox="0 0 32 32">
      <path d="M32 6.078c-1.19.522-2.458.868-3.78 1.036a6.523 6.523 0 0 0 2.886-3.626 13.11 13.11 0 0 1-4.16 1.588A6.574 6.574 0 0 0 22.154 3c-3.632 0-6.556 2.948-6.556 6.562 0 .52.044 1.02.152 1.496-5.454-.266-10.28-2.88-13.522-6.862a6.605 6.605 0 0 0-.898 3.316 6.57 6.57 0 0 0 2.914 5.452 6.479 6.479 0 0 1-2.964-.808v.072c0 3.188 2.274 5.836 5.256 6.446a6.548 6.548 0 0 1-1.72.216 5.8 5.8 0 0 1-1.242-.112c.85 2.598 3.262 4.508 6.13 4.57a13.182 13.182 0 0 1-8.134 2.798c-.538 0-1.054-.024-1.57-.09A18.469 18.469 0 0 0 10.064 29c12.072 0 18.672-10 18.672-18.668 0-.29-.01-.57-.024-.848A13.087 13.087 0 0 0 32 6.078z"/>
    </symbol>
    <symbol id="facebook" viewBox="0 0 32 32">
      <path d="M21.329 5.313h2.921V.225C23.746.156 22.013 0 19.994 0c-4.212 0-7.097 2.649-7.097 7.519V12H8.249v5.688h4.648V32h5.699V17.689h4.46l.708-5.688h-5.169V8.082c.001-1.644.444-2.769 2.735-2.769z"/>
    </symbol>
    <symbol id="linkedin" viewBox="0 0 32 32">
      <path d="M31.992 32v-.001H32V20.263c0-5.741-1.236-10.164-7.948-10.164-3.227 0-5.392 1.771-6.276 3.449h-.093v-2.913h-6.364v21.364h6.627V21.42c0-2.785.528-5.479 3.977-5.479 3.399 0 3.449 3.179 3.449 5.657v10.401h6.62zM.528 10.636h6.635V32H.528V10.636zM3.843 0C1.722 0 0 1.721 0 3.843s1.721 3.879 3.843 3.879c2.121 0 3.843-1.757 3.843-3.879A3.846 3.846 0 0 0 3.843 0z"/>
    </symbol>
    <symbol id="client-1" viewBox="0 0 57 32">
      <path d="m20.267 3.733 3.738 3.538-6.938-.004v17.166H35.2v-6.564l3.733 3.534V3.732H20.266zm14.769 13.722L24.439 7.423h10.597v10.032zm-3.29 4.468h-11.81V10.378h.835v10.764h10.975v.782zm-9.021 4.797-.436.898-.436-.898h-.366l.637 1.198v.698h.331v-.698l.635-1.198h-.365zm.548 1.895.154-.441h.734l.155.441h.344l-.717-1.896h-.296l-.716 1.896h.342zm.521-1.493.275.786h-.549l.275-.786zm1.737.741a.429.429 0 0 0-.072.241c0 .16.056.29.168.389s.263.148.451.148.349-.051.484-.152l.107.126h.367l-.279-.329a.95.95 0 0 0 .164-.574h-.275a.758.758 0 0 1-.079.348l-.366-.432.129-.094c.091-.066.157-.132.197-.198s.06-.14.06-.219c0-.12-.044-.22-.133-.301s-.201-.122-.339-.122c-.153 0-.274.043-.365.13s-.135.203-.135.352c0 .061.014.124.043.189s.081.144.155.237a1.12 1.12 0 0 0-.283.262zm.855.419a.485.485 0 0 1-.299.107c-.095 0-.17-.027-.227-.082s-.085-.126-.085-.214c0-.102.052-.192.156-.271l.04-.029.414.488zm-.34-.84c-.089-.11-.134-.202-.134-.275 0-.063.018-.116.055-.158s.085-.063.147-.063c.057 0 .105.018.142.053s.056.077.056.126a.235.235 0 0 1-.081.184l-.04.033-.145.099zm3.086 1.03a.689.689 0 0 0 .224-.474h-.328c-.017.135-.059.232-.124.29s-.162.087-.292.087c-.142 0-.249-.054-.323-.161s-.109-.264-.109-.469v-.168c.002-.202.041-.355.117-.46s.188-.158.331-.158c.123 0 .217.03.28.091s.104.158.12.294h.328c-.021-.207-.095-.368-.223-.482s-.296-.171-.505-.171a.718.718 0 0 0-.683.426 1.116 1.116 0 0 0-.095.473v.177c.003.174.035.328.098.46s.151.234.266.306a.748.748 0 0 0 .4.107c.216 0 .389-.056.52-.169zm1.936-.266c.064-.141.096-.304.096-.49v-.105c-.001-.185-.034-.347-.099-.486a.726.726 0 0 0-.687-.432.757.757 0 0 0-.411.113c-.119.075-.211.183-.277.324s-.098.305-.098.49v.107c.001.181.034.342.099.48s.159.246.279.322a.764.764 0 0 0 .411.112c.155 0 .293-.037.411-.112s.212-.183.276-.323zm-.352-1.071c.08.112.12.273.12.483v.099c0 .214-.04.376-.119.487s-.19.167-.336.167c-.144 0-.257-.057-.339-.171s-.121-.275-.121-.483v-.109c.002-.204.043-.362.122-.473s.192-.168.335-.168c.146 0 .258.056.337.168z"/>
    </symbol>
    <symbol id="client-2" viewBox="0 0 57 32">
      <path d="M26.727 3.165h-.073a7.542 7.542 0 0 0-.336-.012h-.243c-.212 0-.428.005-.642.016a.4.4 0 0 0-.049 0c-1.944.11-3.848.596-5.609 1.431l-.231.111V16.52l.54-.183a20.64 20.64 0 0 1 1.5-.445 18.34 18.34 0 0 1 4.317-.574v1.551c-.193.001-.38.007-.568.016h-.045a17.207 17.207 0 0 0-3.322.51 16.858 16.858 0 0 0-3.957 1.542V3.792a15.847 15.847 0 0 1 4.151-1.688c1.278-.33 2.593-.5 3.913-.504h.228c.273.007.538.019.788.038.658.046 1.31.15 1.95.311v1.527a12.05 12.05 0 0 0-1.889-.285l-.039-.003c-.132-.011-.263-.022-.386-.022zm2.688 1.561c.339.026.689.038 1.044.038a16.75 16.75 0 0 0 4.114-.528 16.958 16.958 0 0 0 3.956-1.543v14.875a15.88 15.88 0 0 1-4.153 1.688 15.948 15.948 0 0 1-3.913.503c-1 .008-1.997-.11-2.968-.35V4.438c.229.053.465.102.706.142.394.066.81.115 1.214.145zm7.57.115-.54.182c-.497.167-.997.316-1.5.449a18.23 18.23 0 0 1-4.483.575c-.352 0-.676-.01-.989-.03l-.43-.028v12.148l.37.033c.343.03.696.045 1.052.045a14.364 14.364 0 0 0 3.531-.457c.95-.238 1.874-.57 2.759-.991l.231-.111V4.843zM19.06 24.113a.788.788 0 0 0-.6-.243.895.895 0 0 0-.347.065.778.778 0 0 0-.444.449.893.893 0 0 0-.062.335v2.023a.94.94 0 0 0 .08.415.718.718 0 0 0 .48.415c.098.028.2.042.302.042a.855.855 0 0 0 .838-.851v-.226h-.529v.18a.458.458 0 0 1-.031.18.315.315 0 0 1-.077.114.38.38 0 0 1-.222.077.266.266 0 0 1-.249-.109.479.479 0 0 1-.07-.271v-1.887a.643.643 0 0 1 .065-.302c.027-.043.066-.077.112-.098s.097-.03.147-.024a.28.28 0 0 1 .236.114c.059.078.09.173.088.271v.175h.524v-.206a.953.953 0 0 0-.242-.639zM22.202 24.09a.92.92 0 0 0-1.197 0 .82.82 0 0 0-.205.283.959.959 0 0 0-.077.392v1.941a.932.932 0 0 0 .077.397.791.791 0 0 0 .205.271.837.837 0 0 0 .279.171.897.897 0 0 0 .918-.171.849.849 0 0 0 .2-.271.934.934 0 0 0 .077-.397v-1.941a.943.943 0 0 0-.077-.392.867.867 0 0 0-.2-.283zm-.247 2.616a.355.355 0 0 1-.105.28.386.386 0 0 1-.498 0 .352.352 0 0 1-.105-.28v-1.941a.355.355 0 0 1 .105-.28.386.386 0 0 1 .498 0 .352.352 0 0 1 .105.28v1.941zM26.329 27.573v-3.674h-.509l-.668 1.945h-.009l-.673-1.945h-.503v3.674h.525v-2.235h.009l.514 1.58h.262l.518-1.58h.009v2.235h.525zM29.311 24.157a.727.727 0 0 0-.297-.201 1.168 1.168 0 0 0-.38-.057h-.78v3.674h.523v-1.435h.27a.964.964 0 0 0 .472-.1.759.759 0 0 0 .287-.281.875.875 0 0 0 .12-.32c.021-.138.03-.278.028-.418a2.107 2.107 0 0 0-.051-.525.785.785 0 0 0-.193-.338zm-.27 1.12a.45.45 0 0 1-.049.191.296.296 0 0 1-.135.129.538.538 0 0 1-.247.046h-.239v-1.249h.27a.506.506 0 0 1 .236.046.3.3 0 0 1 .123.136.537.537 0 0 1 .046.205v.244c0 .085.005.174 0 .252h-.005zM31.791 23.899h-.429l-.809 3.674h.523l.154-.789h.714l.154.789h.524l-.83-3.674zm-.483 2.384.258-1.332h.009l.256 1.332h-.524zM35.173 26.112h-.009l-.791-2.213h-.503v3.674h.523v-2.209h.011l.8 2.209h.492v-3.674h-.523v2.213zM38.372 23.899l-.421 1.461h-.011l-.421-1.461h-.554l.719 2.121v1.553h.524V26.02l.719-2.121h-.554zM17.6 28.61h.252v.708h.171v-.708h.251v-.145h-.675v.145zM19.721 28.465l-.331.853h.182l.07-.194h.34l.073.194h.186l-.339-.853h-.182zm-.027.516.116-.316.116.316h-.232zM21.818 29.004h.197v.11a.332.332 0 0 1-.202.072c-.034.002-.069-.004-.1-.019s-.059-.036-.081-.063a.352.352 0 0 1-.063-.222c0-.19.082-.285.246-.285.043-.004.086.007.121.032s.061.062.072.104l.169-.033c-.036-.167-.156-.251-.362-.251a.426.426 0 0 0-.298.11.413.413 0 0 0-.122.328.465.465 0 0 0 .109.32.408.408 0 0 0 .324.125.511.511 0 0 0 .362-.136v-.336h-.37v.144zM23.959 28.465h-.173v.853h.598v-.145h-.425v-.708zM25.769 28.465h-.173v.853h.173v-.853zM27.539 29.035l-.349-.57h-.167v.853h.161v-.557l.343.557h.171v-.853h-.158v.57zM29.14 28.943h.425v-.145h-.425v-.187h.457v-.145h-.63v.853h.648v-.145h-.475v-.231zM33.02 28.802h-.336v-.336h-.171v.853h.171v-.373h.336v.373h.171v-.853h-.171v.336zM34.629 28.943h.426v-.145h-.426v-.187h.459v-.145h-.63v.853h.646v-.145h-.475v-.231zM36.812 28.943c.148-.023.224-.102.224-.237a.203.203 0 0 0-.084-.189.479.479 0 0 0-.25-.05h-.362v.853h.171v-.357h.034a.231.231 0 0 1 .107.019.181.181 0 0 1 .061.062l.186.271h.205L37 29.148a.6.6 0 0 0-.189-.205zm-.172-.118h-.127v-.214h.135a.445.445 0 0 1 .174.02c.012.011.022.025.029.04a.116.116 0 0 1-.004.097.114.114 0 0 1-.032.037.486.486 0 0 1-.174.02zM38.458 28.943h.425v-.145h-.425v-.187h.459v-.145h-.631v.853h.648v-.145h-.475v-.231z"/>
    </symbol>
    <symbol id="client-3" viewBox="0 0 57 32">
      <path d="M19.417 26.187c.008 0 .017.002.025.005s.015.007.02.013l.116.111a.955.955 0 0 1-.327.211 1.299 1.299 0 0 1-.464.076 1.213 1.213 0 0 1-.436-.071.942.942 0 0 1-.329-.2.878.878 0 0 1-.212-.308 1.02 1.02 0 0 1-.074-.396.91.91 0 0 1 .305-.705 1.06 1.06 0 0 1 .349-.201c.143-.048.296-.072.449-.071.143-.003.285.019.417.064.115.043.221.104.313.178l-.097.119a.085.085 0 0 1-.025.021.066.066 0 0 1-.039.009.086.086 0 0 1-.042-.013l-.052-.032-.073-.04a.818.818 0 0 0-.229-.071 1.11 1.11 0 0 0-.173-.013.952.952 0 0 0-.323.053.683.683 0 0 0-.417.387.81.81 0 0 0-.06.313.795.795 0 0 0 .06.318.68.68 0 0 0 .402.383.867.867 0 0 0 .3.05c.059.001.119-.003.177-.01a.69.69 0 0 0 .384-.163.09.09 0 0 1 .055-.02zM22.776 25.629a.974.974 0 0 1-.078.393c-.047.114-.122.218-.219.305s-.214.155-.344.2a1.42 1.42 0 0 1-.884 0 1.027 1.027 0 0 1-.342-.201.904.904 0 0 1-.221-.308 1.022 1.022 0 0 1 0-.787.94.94 0 0 1 .221-.31c.097-.084.214-.15.342-.193.284-.096.6-.096.884 0 .129.046.246.114.343.201a.914.914 0 0 1 .298.699zm-.306 0a.84.84 0 0 0-.055-.316.653.653 0 0 0-.402-.385 1.025 1.025 0 0 0-.643 0 .683.683 0 0 0-.246.149.63.63 0 0 0-.157.236.927.927 0 0 0 0 .632.643.643 0 0 0 .403.384c.207.067.435.067.643 0a.698.698 0 0 0 .246-.148.662.662 0 0 0 .156-.236.82.82 0 0 0 .055-.316zM25.067 25.96l.03.071.033-.071a.68.68 0 0 1 .038-.07l.743-1.174c.015-.02.028-.033.042-.037a.207.207 0 0 1 .061-.006h.22v1.909h-.26V25.119a.726.726 0 0 1 0-.066l-.747 1.19c-.009.018-.025.033-.044.043s-.041.016-.064.016h-.042c-.023 0-.045-.005-.064-.016s-.034-.026-.044-.044l-.769-1.198v1.533h-.252v-1.905h.22a.207.207 0 0 1 .061.006.087.087 0 0 1 .041.037l.759 1.175a.418.418 0 0 1 .038.068zM27.864 25.865v.715h-.291v-1.906h.649c.122-.002.244.012.362.042a.724.724 0 0 1 .256.119.492.492 0 0 1 .145.187.576.576 0 0 1 .049.244.54.54 0 0 1-.211.435.752.752 0 0 1-.257.126 1.25 1.25 0 0 1-.35.044l-.352-.005zm0-.205h.352a.808.808 0 0 0 .225-.029.52.52 0 0 0 .163-.082.358.358 0 0 0 .134-.286c.003-.053-.007-.106-.029-.155s-.057-.094-.102-.13a.624.624 0 0 0-.391-.102h-.352v.786zM31.772 26.583h-.23a.109.109 0 0 1-.064-.018.123.123 0 0 1-.038-.044l-.198-.461h-.993l-.205.461a.107.107 0 0 1-.101.062h-.23l.872-1.909h.302l.884 1.909zm-1.439-.709h.82l-.346-.777a1.276 1.276 0 0 1-.065-.179l-.034.1a.98.98 0 0 1-.032.081l-.343.776zM33.029 24.682c.017.008.032.02.044.034l1.272 1.439V24.673h.26v1.909h-.145a.136.136 0 0 1-.06-.011.165.165 0 0 1-.047-.035l-1.271-1.438a.726.726 0 0 1 0 .066v1.419h-.26v-1.909h.154a.15.15 0 0 1 .052.009zM36.748 25.823v.758h-.291v-.758l-.804-1.15h.26a.114.114 0 0 1 .063.016.159.159 0 0 1 .039.043l.503.742a.717.717 0 0 1 .088.169l.038-.082a.745.745 0 0 1 .049-.087l.496-.747a.18.18 0 0 1 .038-.04.098.098 0 0 1 .063-.019h.263l-.806 1.155zM24.923 21.47c.127.014.255.025.384.035 1.962-.763 3.622-2.011 4.772-3.588s1.74-3.415 1.695-5.282l-2.162-1.879c.44 1.988.234 4.043-.594 5.935s-2.245 3.547-4.094 4.779z"/>
      <path d="m24.151 21.383.058.01c1.975-1.228 3.482-2.942 4.323-4.921s.981-4.133.4-6.181l-3.08-2.676c1.246 2.2 1.747 4.661 1.446 7.098s-1.393 4.75-3.147 6.67zM34.596 14.841c-.523 2.052-1.794 3.902-3.624 5.276-.534.404-1.111.763-1.722 1.074 1.49-.38 2.859-1.053 4.003-1.966s2.03-2.042 2.592-3.3l-1.249-1.084z"/>
      <path d="m34.106 14.539-1.778-1.545c-.034 1.762-.61 3.483-1.669 4.986s-2.562 2.731-4.352 3.559h.009c.399 0 .798-.021 1.194-.062 1.673-.593 3.151-1.537 4.303-2.748s1.94-2.65 2.295-4.189zM24.409 6.486 22.287 4.64c-1.897.637-3.528 1.756-4.68 3.212s-1.772 3.179-1.778 4.946c.007 1.952.763 3.846 2.149 5.383s3.322 2.628 5.501 3.101c1.946-2.06 3.085-4.605 3.252-7.266s-.647-5.299-2.323-7.53zM39.008 14.255c-.008-2.316-1.07-4.535-2.955-6.173s-4.439-2.561-7.105-2.567a11.3 11.3 0 0 0-3.602.582l12.99 11.286a7.647 7.647 0 0 0 .672-3.128z"/>
    </symbol>
    <symbol id="client-4" viewBox="0 0 57 32">
      <path d="M12.878 11.255h-.002c-1.279 0-2.316.921-2.316 2.058v.001c0 1.137 1.037 2.058 2.316 2.058h.002c1.279 0 2.316-.921 2.316-2.058v-.001c0-1.137-1.037-2.058-2.316-2.058zM29.971 10.597c-.004-1.579-.711-3.092-1.967-4.208s-2.958-1.745-4.735-1.749c-1.777.003-3.48.631-4.737 1.748s-1.964 2.63-1.968 4.209v8.706s13.405-1.327 13.406-8.704v-.001zM5.867 22.16c.003 1.098.496 2.151 1.369 2.928s2.058 1.215 3.294 1.218c1.236-.003 2.42-.441 3.294-1.218s1.366-1.829 1.37-2.927v-6.057s-9.327.924-9.327 6.056zm4.663 1.085c-.242 0-.478-.064-.678-.183s-.357-.289-.45-.487c-.092-.198-.117-.417-.069-.627s.163-.404.334-.556c.171-.152.388-.255.625-.297s.482-.02.706.062c.223.082.414.221.548.4s.206.388.206.603c.001.143-.031.284-.092.417s-.151.252-.264.353c-.114.101-.248.182-.397.236s-.308.083-.468.083v-.004zM19.956 22.647h-.9v.93h-.469v-2.275h1.481v.38h-1.012v.588h.9v.378zm2.253-.156c0 .224-.04.42-.119.589a.893.893 0 0 1-.847.528c-.189 0-.357-.045-.505-.136s-.262-.22-.344-.387a1.344 1.344 0 0 1-.123-.581v-.112c0-.224.04-.421.12-.591a.895.895 0 0 1 .848-.529c.189 0 .358.046.505.137a.888.888 0 0 1 .342.392c.081.17.122.366.122.589v.102zm-.475-.103c0-.238-.043-.42-.128-.544s-.207-.186-.366-.186a.416.416 0 0 0-.364.184c-.085.122-.129.301-.13.538v.111c0 .232.043.412.128.541s.208.192.369.192a.415.415 0 0 0 .363-.184c.084-.124.127-.304.128-.541v-.111zm1.996.592a.237.237 0 0 0-.094-.203 1.203 1.203 0 0 0-.337-.15 2.418 2.418 0 0 1-.386-.156c-.258-.14-.387-.328-.387-.564 0-.123.034-.232.103-.328a.688.688 0 0 1 .298-.227c.13-.054.276-.081.438-.081.163 0 .307.03.434.089a.662.662 0 0 1 .401.614h-.469c0-.104-.033-.185-.098-.242s-.158-.087-.277-.087a.426.426 0 0 0-.267.073.225.225 0 0 0-.095.191c0 .074.037.136.111.186.075.05.185.097.33.141.267.08.461.18.583.298s.183.267.183.444a.55.55 0 0 1-.223.464c-.149.111-.349.167-.602.167-.175 0-.334-.032-.478-.095-.144-.065-.254-.153-.33-.264s-.113-.241-.113-.388h.47c0 .251.15.377.45.377a.442.442 0 0 0 .261-.067.222.222 0 0 0 .094-.191zm2.501-1.298h-.697v1.895h-.469v-1.895h-.687v-.38h1.853v.38zm1.638.909h-.9v.609h1.056v.377H26.5v-2.275h1.522v.38h-1.053v.542h.9v.367zm1.273.153h-.373v.833H28.3v-2.275h.845c.269 0 .476.06.622.18s.219.289.219.508a.697.697 0 0 1-.102.389.689.689 0 0 1-.305.247l.492.93v.022h-.503l-.427-.833zm-.373-.379h.378c.118 0 .209-.03.273-.089a.321.321 0 0 0 .097-.248.343.343 0 0 0-.092-.253c-.06-.061-.154-.092-.28-.092h-.377v.683zm2.84.41v.802h-.469v-2.275h.887c.171 0 .321.031.45.094a.703.703 0 0 1 .405.659.655.655 0 0 1-.23.528c-.152.128-.363.192-.633.192h-.411zm0-.379h.419c.124 0 .218-.029.283-.088.066-.058.098-.142.098-.25 0-.111-.033-.202-.098-.27s-.156-.104-.272-.106h-.43v.714zm2.966.195h-.9v.609h1.056v.377h-1.525v-2.275h1.522v.38h-1.053v.542h.9v.367zm2.175-.909h-.697v1.895h-.469v-1.895h-.688v-.38h1.853v.38zm1.637.909h-.9v.609h1.056v.377h-1.525v-2.275h1.522v.38h-1.053v.542h.9v.367zm1.274.153h-.373v.833h-.469v-2.275h.845c.269 0 .476.06.622.18s.219.289.219.508a.697.697 0 0 1-.102.389.689.689 0 0 1-.305.247l.492.93v.022h-.503l-.427-.833zm-.374-.379h.378c.118 0 .209-.03.273-.089a.321.321 0 0 0 .097-.248.343.343 0 0 0-.092-.253c-.06-.061-.154-.092-.28-.092h-.377v.683zm2.755.615a.237.237 0 0 0-.094-.203 1.203 1.203 0 0 0-.337-.15 2.418 2.418 0 0 1-.386-.156c-.258-.14-.388-.328-.388-.564 0-.123.034-.232.103-.328a.688.688 0 0 1 .298-.227c.13-.054.276-.081.438-.081.163 0 .307.03.434.089a.675.675 0 0 1 .295.248.646.646 0 0 1 .106.366h-.469c0-.104-.033-.185-.098-.242s-.158-.087-.277-.087a.426.426 0 0 0-.267.073.225.225 0 0 0-.095.191c0 .074.037.136.111.186.075.05.185.097.33.141.267.08.461.18.583.298s.183.267.183.444a.548.548 0 0 1-.223.464c-.149.111-.349.167-.602.167-.175 0-.334-.032-.478-.095a.773.773 0 0 1-.33-.264.678.678 0 0 1-.112-.388h.47c0 .251.15.377.45.377a.442.442 0 0 0 .261-.067.222.222 0 0 0 .094-.191z"/>
    </symbol>
    <symbol id="client-5" viewBox="0 0 57 32">
      <path d="M14.27 23.859c.13.147.199.332.196.521.007.123-.017.247-.07.361s-.132.216-.233.297c-.252.175-.565.26-.881.24h-1.549v-3.302h1.517c.299-.018.596.059.84.219.098.075.176.17.227.277s.074.224.068.341a.725.725 0 0 1-.176.505.839.839 0 0 1-.462.258.897.897 0 0 1 .523.282zm-1.816-.499h.648a.653.653 0 0 0 .412-.11c.049-.04.087-.09.111-.146s.034-.116.028-.176c.005-.06-.005-.12-.029-.175s-.061-.106-.108-.147a.665.665 0 0 0-.425-.111h-.638v.866zm1.124 1.267c.052-.041.093-.093.12-.151s.038-.121.034-.184c.004-.064-.008-.127-.035-.186s-.069-.111-.121-.153a.714.714 0 0 0-.44-.119h-.68v.908h.689a.732.732 0 0 0 .435-.114zM17.371 25.278l-.844-1.291h-.317v1.291h-.726v-3.302h1.374c.346-.022.689.078.957.281.192.179.308.415.327.666s-.061.499-.224.7c-.17.178-.401.296-.655.336l.898 1.32h-.789zm-1.161-1.74h.594c.412 0 .618-.167.618-.5a.458.458 0 0 0-.151-.371.687.687 0 0 0-.467-.134h-.601l.007 1.005zM21.339 24.614h-1.446l-.255.665h-.761l1.328-3.265h.823l1.323 3.265h-.761l-.25-.665zm-.194-.5-.529-1.394-.529 1.394h1.057zM26.305 25.278h-.721l-1.616-2.245v2.245h-.719v-3.302h.719l1.616 2.258v-2.258h.721v3.302zM30.417 24.488a1.501 1.501 0 0 1-.652.582 2.282 2.282 0 0 1-1.013.208h-1.283v-3.302h1.283c.351-.008.698.061 1.013.203.276.127.503.328.652.576a1.78 1.78 0 0 1 0 1.732zm-.824-.079c.206-.219.319-.499.319-.788s-.113-.569-.319-.788a1.326 1.326 0 0 0-.902-.281h-.5v2.137h.5c.329.019.654-.082.902-.281zM21.79 3.609s9.301 3.215 9.103 7.867v7.869s-9.294-3.217-9.1-7.869l-.004-7.867zM39.179 17.503a13.494 13.494 0 0 1 5.909-1.994v-2.463c-2.444.862-4.517 2.426-5.909 4.457z"/>
      <path d="M38.124 18.245c1.438-2.651 3.93-4.696 6.964-5.715V5.432s-13.245 4.58-12.965 11.205V27.84s.59-.205 1.519-.589c0-.358 0-.719.042-1.082.274-3.076 1.871-5.926 4.44-7.924z"/>
      <path d="M36.864 22.407c.07-.777.225-1.546.463-2.294-1.599 1.725-2.568 3.866-2.77 6.122-.019.213-.03.426-.035.645a40.466 40.466 0 0 0 2.548-1.229 10.624 10.624 0 0 1-.206-3.244zM37.391 22.447a10.17 10.17 0 0 0 .164 2.938c3.619-1.983 7.685-5.046 7.528-8.748v-.323c-2.585.265-5.004 1.3-6.885 2.946a10.29 10.29 0 0 0-.807 3.188z"/>
    </symbol>
    <symbol id="client-6" viewBox="0 0 57 32">
      <path d="M28.493 14.618a1.58 1.58 0 0 1-.323-1.061v-1.538c0-.471.107-.83.321-1.075s.581-.367 1.102-.366c.489 0 .836.104 1.042.313.224.266.333.592.308.92v.361h-.875v-.366c.003-.12-.005-.24-.025-.358a.352.352 0 0 0-.125-.213.505.505 0 0 0-.317-.083.533.533 0 0 0-.333.088.412.412 0 0 0-.145.235 1.74 1.74 0 0 0-.034.38v1.866c-.014.18.025.36.112.524.044.055.104.099.175.127s.149.038.226.029a.478.478 0 0 0 .31-.084.375.375 0 0 0 .13-.227c.02-.124.03-.249.027-.374v-.379h.875v.346c.025.342-.082.682-.303.967-.201.228-.544.343-1.047.343s-.884-.122-1.1-.375zM32.137 14.633c-.221-.239-.332-.588-.332-1.05v-1.617c0-.457.11-.802.332-1.037s.591-.351 1.109-.35c.515 0 .882.117 1.103.35.221.235.333.58.333 1.037v1.617c0 .457-.112.807-.337 1.048s-.591.361-1.1.361c-.509 0-.886-.122-1.109-.36zm1.517-.388a.906.906 0 0 0 .105-.479v-1.98a.88.88 0 0 0-.103-.469c-.044-.057-.106-.101-.179-.129s-.152-.037-.231-.027c-.079-.009-.159 0-.231.028s-.135.072-.18.129a.853.853 0 0 0-.105.469v1.99a.888.888 0 0 0 .105.479c.051.05.114.091.185.119a.612.612 0 0 0 .635-.119v-.009zM35.735 10.626h.942l.708 2.984.725-2.984h.917l.092 4.308h-.678l-.072-2.994-.699 2.994h-.544l-.725-3.005-.067 3.005h-.685l.085-4.308zM40.176 10.626h1.468c.846 0 1.268.408 1.268 1.223 0 .781-.445 1.171-1.335 1.17h-.5v1.915h-.906l.005-4.308zm1.254 1.841a.7.7 0 0 0 .498-.136.693.693 0 0 0 .13-.486 1.327 1.327 0 0 0-.044-.391c-.013-.043-.036-.083-.067-.118s-.07-.065-.114-.087a.94.94 0 0 0-.404-.069h-.352v1.287h.352zM44.218 10.626h.973l.998 4.308h-.844l-.197-.993h-.868l-.203.993h-.857l.998-4.308zm.832 2.815-.339-1.808-.339 1.808h.678zM46.996 10.626h.634l1.214 2.457v-2.457h.752v4.308h-.603l-1.221-2.565v2.565h-.777l.002-4.308zM51.357 13.291l-1.009-2.659h.85l.616 1.708.578-1.708h.832l-.997 2.659v1.642h-.87v-1.642zM29.892 16.817v.225h-.739v1.75h-.31v-1.75H28.1v-.225h1.792zM32.209 18.793h-.239a.105.105 0 0 1-.067-.019.102.102 0 0 1-.04-.045l-.214-.469h-1.026l-.214.469a.119.119 0 0 1-.033.053.112.112 0 0 1-.067.019h-.239l.906-1.976h.315l.917 1.968zm-1.5-.734h.855l-.362-.804a1.426 1.426 0 0 1-.067-.186 4.03 4.03 0 0 0-.034.105l-.033.083-.359.802zM33.771 18.599a1.018 1.018 0 0 0 .315-.023.961.961 0 0 0 .13-.036c.04-.014.08-.031.121-.048v-.444h-.362c-.009 0-.018-.001-.026-.003s-.016-.007-.023-.012c-.006-.004-.011-.01-.014-.016s-.005-.013-.004-.02v-.152h.703v.757a1.407 1.407 0 0 1-.609.202 2.591 2.591 0 0 1-.264.012 1.41 1.41 0 0 1-.457-.073 1.104 1.104 0 0 1-.362-.206.956.956 0 0 1-.234-.313.99.99 0 0 1-.083-.41.907.907 0 0 1 .316-.726c.103-.089.227-.159.362-.205.155-.05.32-.075.486-.074.084 0 .169.006.252.017a1.21 1.21 0 0 1 .397.128c.056.031.108.065.158.103l-.087.122c-.007.011-.017.021-.029.027s-.027.01-.041.01a.118.118 0 0 1-.056-.016 1.344 1.344 0 0 1-.089-.047.727.727 0 0 0-.121-.053 1.171 1.171 0 0 0-.167-.044 1.362 1.362 0 0 0-.23-.017 1.06 1.06 0 0 0-.35.055.704.704 0 0 0-.435.402.924.924 0 0 0 0 .659.756.756 0 0 0 .446.405c.115.034.237.047.359.039zM36.659 18.567h.989v.225h-1.292v-1.976h.31l-.007 1.75zM38.678 18.792h-.31v-1.976h.31v1.976zM39.83 16.826a.151.151 0 0 1 .047.036l1.324 1.489a.41.41 0 0 1 0-.07v-1.472h.27v1.984h-.156a.14.14 0 0 1-.067-.011.184.184 0 0 1-.049-.038l-1.323-1.488v1.536h-.259v-1.976h.161c.017 0 .035.003.051.009zM43.753 16.817v.217h-1.098v.652h.89v.21h-.89v.674h1.098v.217h-1.417v-1.971h1.417zM11.286 4.616l13.757 3.372v11.818l-13.757-3.371V4.616zm-.882-1.007V17.01l15.52 3.806V7.417L10.404 3.61z"/>
      <path d="M18.722 27.036 3.2 23.227V9.828l15.522 3.807v13.401z"/>
      <path d="m10.661 4.465 13.578 3.33-5.774 4.987L4.885 9.45l5.776-4.985zm-.257-.856L3.2 9.828l15.522 3.807 7.202-6.219-15.52-3.807zM19.595 26.282l6.329-5.465-6.329-1.553v7.018z"/>
    </symbol>
    <symbol id="close-button" viewBox="0 0 32 32">
      <path d="M26.667 7.303l-1.97-1.97-7.808 7.808-7.808-7.808-1.97 1.97 7.808 7.808-7.808 7.808 1.97 1.97 7.808-7.808 7.808 7.808 1.97-1.97-7.808-7.808 7.808-7.808z"></path>
    </symbol>
    <symbol id="send-button" viewBox="0 0 32 32">
      <path d="M32 0 0 18l10.227 3.788L26 7 14.002 23.186l.01.004-.012-.004V32l5.735-6.691L27 28l5-28z"/>
    </symbol>
    <symbol id="modal-icon-check" viewBox="0 0 34 32">
      <path fill="#2196f3" style="fill: var(--color1, #2196f3)" d="M4.267 0h25.6c2.356 0 4.267 1.91 4.267 4.267v23.467c0 2.356-1.91 4.267-4.267 4.267h-25.6c-2.356 0-4.267-1.91-4.267-4.267v-23.467c0-2.356 1.91-4.267 4.267-4.267z"></path>
      <path fill="#fff" style="fill: var(--color2, #fff); stroke: var(--color2, #fff)" stroke="#fff" stroke-linejoin="miter" stroke-linecap="butt" stroke-miterlimit="4" stroke-width="0.4267" d="M8.442 16.537l-0.147-0.14-2.205 2.088 7.767 7.41 16.318-15.567-2.19-2.089-14.128 13.465-5.416-5.167z"></path>
    </symbol>
    <symbol id="modal-email" viewBox="0 0 32 32">
      <path d="M26.667 5.333H5.334A2.663 2.663 0 0 0 2.681 8l-.013 16c0 1.467 1.2 2.667 2.667 2.667h21.333c1.467 0 2.667-1.2 2.667-2.667V8c0-1.467-1.2-2.667-2.667-2.667zM26.133 11l-9.427 5.893a1.346 1.346 0 0 1-1.413 0L5.866 11a1.132 1.132 0 1 1 1.2-1.92l8.933 5.587 8.933-5.587a1.132 1.132 0 1 1 1.2 1.92z"/>
    </symbol>
    <symbol id="modal-person" viewBox="0 0 32 32">
      <path d="M16 16c2.947 0 5.333-2.387 5.333-5.333S18.946 5.334 16 5.334c-2.947 0-5.333 2.387-5.333 5.333S13.054 16 16 16zm0 2.667c-3.56 0-10.667 1.787-10.667 5.333v1.333c0 .733.6 1.333 1.333 1.333h18.667c.733 0 1.333-.6 1.333-1.333V24c0-3.547-7.107-5.333-10.667-5.333z"/>
    </symbol>
    <symbol id="modal-phone" viewBox="0 0 32 32">
      <path d="m24.882 19.773-3.268-.373a2.561 2.561 0 0 0-2.11.733L17.137 22.5a19.357 19.357 0 0 1-8.478-8.478l2.38-2.38a2.561 2.561 0 0 0 .733-2.11l-.373-3.242a2.575 2.575 0 0 0-2.56-2.277H6.613c-1.454 0-2.663 1.209-2.573 2.663.682 10.987 9.469 19.761 20.443 20.443 1.454.09 2.663-1.119 2.663-2.573V22.32a2.55 2.55 0 0 0-2.264-2.547z"/>
    </symbol>
    <symbol id="modal-icon-unchek" viewBox="0 0 34 32">
      <path d="M30.341 3.556v24.889h-26.548v-24.889h26.548zM30.341 0h-26.548c-2.086 0-3.793 1.6-3.793 3.556v24.889c0 1.956 1.707 3.556 3.793 3.556h26.548c2.086 0 3.793-1.6 3.793-3.556v-24.889c0-1.956-1.707-3.556-3.793-3.556z"></path>
    </symbol>
    <symbol id="mobile-close-button" viewBox="0 0 32 32">
      <path d="M23.733 10.304l-1.504-1.504-5.963 5.963-5.963-5.963-1.504 1.504 5.963 5.963-5.963 5.963 1.504 1.504 5.963-5.963 5.963 5.963 1.504-1.504-5.963-5.963 5.963-5.963z"></path>
    </symbol>
    <symbol id="mobile-menu-button" viewBox="0 0 48 32">
      <path d="M0 5.333v-5.333h48v5.333h-48zM0 18.667h48v-5.333h-48v5.333zM0 32h48v-5.333h-48v5.333z"></path>
    </symbol>
    <symbol id="arrow-1" viewBox="0 0 67 32">
      <path d="M65.414 17.414c0.781-0.781 0.781-2.047 0-2.828l-12.728-12.728c-0.781-0.781-2.047-0.781-2.829 0s-0.781 2.047 0 2.828l11.314 11.314-11.314 11.314c-0.781 0.781-0.781 2.047 0 2.829s2.047 0.781 2.829 0l12.728-12.728zM0 18h64v-4h-64v4z"></path>
    </symbol>
    <symbol id="icon-checkmark" viewBox="0 0 32 32">
      <path d="M27 4l-15 15-7-7-5 5 12 12 20-20z"></path>
    </symbol>
    <symbol id="youtube" viewBox="0 0 32 32">
      <path d="M31.681 9.6c0 0-0.313-2.206-1.275-3.175-1.219-1.275-2.581-1.281-3.206-1.356-4.475-0.325-11.194-0.325-11.194-0.325h-0.012c0 0-6.719 0-11.194 0.325-0.625 0.075-1.987 0.081-3.206 1.356-0.963 0.969-1.269 3.175-1.269 3.175s-0.319 2.588-0.319 5.181v2.425c0 2.587 0.319 5.181 0.319 5.181s0.313 2.206 1.269 3.175c1.219 1.275 2.819 1.231 3.531 1.369 2.563 0.244 10.881 0.319 10.881 0.319s6.725-0.012 11.2-0.331c0.625-0.075 1.988-0.081 3.206-1.356 0.962-0.969 1.275-3.175 1.275-3.175s0.319-2.587 0.319-5.181v-2.425c-0.006-2.588-0.325-5.181-0.325-5.181zM12.694 20.15v-8.994l8.644 4.513-8.644 4.481z"></path>
    </symbol>
    <symbol id="meddiagnostic" viewBox="0 0 35 32">
      <path d="M0 0h35.137v32h-35.137v-32zM3.765 1.882h-1.882v28.235h21.961v-14.052l-13.82-14.184h-6.258zM25.098 17.354v12.764h8.157v-4.392l-8.157-8.372zM25.098 15.556l8.157 8.372v-22.045h-8.157v13.673zM23.843 1.882h-12.068l12.068 12.386v-12.386z"></path>
    </symbol>
    <symbol id="viber" viewBox="0 0 32 32">
      <path d="M15.197 0.003c-2.567 0.035-8.089 0.456-11.179 3.287-2.293 2.28-3.095 5.641-3.188 9.804-0.080 4.147-0.173 11.933 7.333 14.055v3.227c0 0-0.051 1.293 0.803 1.56 1.053 0.333 1.653-0.665 2.653-1.732l1.867-2.107c5.133 0.427 9.067-0.559 9.52-0.705 1.040-0.333 6.908-1.081 7.868-8.869 0.987-8.041-0.48-13.108-3.12-15.401l-0.013-0.003c-0.8-0.733-4-3.067-11.16-3.093 0 0-0.528-0.033-1.384-0.021zM15.287 2.265c0.727-0.004 1.173 0.027 1.173 0.027 6.053 0.013 8.948 1.84 9.628 2.453 2.227 1.905 3.371 6.475 2.533 13.189-0.8 6.507-5.56 6.92-6.44 7.2-0.373 0.12-3.84 0.973-8.203 0.693 0 0-3.252 3.921-4.265 4.935-0.16 0.173-0.347 0.227-0.467 0.2-0.173-0.040-0.227-0.253-0.213-0.547l0.027-5.359c-6.361-1.76-5.988-8.403-5.921-11.869 0.080-3.467 0.733-6.309 2.667-8.229 2.609-2.36 7.3-2.68 9.481-2.693zM15.767 5.732c-0 0-0.001 0-0.001 0-0.22 0-0.399 0.178-0.399 0.399 0 0 0 0 0 0v0c0 0.221 0.179 0.4 0.4 0.4v0c0.043-0.001 0.093-0.001 0.143-0.001 2.034 0 3.88 0.809 5.232 2.123l-0.002-0.002c1.453 1.413 2.161 3.307 2.188 5.787 0 0.221 0.179 0.4 0.4 0.4v0-0.012c0.221 0 0.4-0.179 0.4-0.4v0c0.005-0.109 0.008-0.236 0.008-0.364 0-2.326-0.923-4.436-2.423-5.985l0.002 0.002c-1.587-1.547-3.589-2.347-5.948-2.347zM10.495 6.652c-0.054-0.008-0.116-0.013-0.18-0.013-0.236 0-0.457 0.064-0.646 0.176l0.006-0.003h-0.016c-0.547 0.32-1.051 0.72-1.531 1.253-0.36 0.427-0.561 0.852-0.615 1.265-0.009 0.064-0.014 0.137-0.014 0.212 0 0.182 0.029 0.357 0.084 0.521l-0.003-0.012 0.027 0.013c0.458 1.331 0.998 2.476 1.646 3.549l-0.046-0.082c0.895 1.608 1.922 2.996 3.101 4.237l-0.008-0.009 0.040 0.053 0.053 0.040 0.080 0.080c1.236 1.174 2.628 2.205 4.136 3.053l0.104 0.054c1.76 0.96 2.829 1.413 3.469 1.6v0.013c0.187 0.053 0.357 0.080 0.531 0.080 0.57-0.043 1.079-0.274 1.471-0.631l-0.002 0.002c0.52-0.467 0.933-0.984 1.24-1.531v-0.013c0.307-0.573 0.2-1.121-0.24-1.495-0.845-0.742-1.782-1.421-2.781-2.007l-0.085-0.046c-0.68-0.373-1.373-0.147-1.653 0.227l-0.6 0.759c-0.307 0.373-0.867 0.32-0.867 0.32l-0.016 0.013c-4.16-1.067-5.267-5.279-5.267-5.279s-0.053-0.573 0.333-0.867l0.747-0.6c0.36-0.293 0.613-0.987 0.227-1.667-0.631-1.084-1.31-2.022-2.071-2.887l0.017 0.020c-0.166-0.204-0.399-0.349-0.665-0.399l-0.007-0.001zM16.459 7.839c-0.22 0.001-0.399 0.18-0.399 0.4s0.179 0.4 0.4 0.4c0 0 0.001 0 0.001 0h-0c1.388 0.025 2.636 0.607 3.532 1.532l0.001 0.001c0.75 0.825 1.209 1.926 1.209 3.134 0 0.103-0.003 0.205-0.010 0.306l0.001-0.014c0.001 0.22 0.18 0.399 0.4 0.399 0 0 0 0 0 0v0l0.013 0.016c0 0 0 0 0 0 0.221 0 0.4-0.179 0.4-0.4 0-0 0-0.001 0-0.001v0c0.040-1.587-0.453-2.92-1.427-3.987s-2.333-1.667-4.067-1.787c-0.008-0.001-0.018-0.001-0.028-0.001s-0.020 0-0.029 0.001l0.001-0zM17.112 9.997c-0.004-0-0.008-0-0.012-0-0.225 0-0.407 0.182-0.407 0.408 0 0.221 0.176 0.401 0.395 0.407h0.001c1.32 0.067 1.96 0.733 2.040 2.107 0.007 0.215 0.184 0.387 0.4 0.387 0 0 0 0 0 0h0.013c0.215-0.007 0.388-0.183 0.388-0.4 0-0.009-0-0.019-0.001-0.028l0 0.001c-0.093-1.787-1.067-2.788-2.8-2.881-0.002-0-0.005-0-0.008-0s-0.006 0-0.008 0h0z"></path>
    </symbol>
    <symbol id="whatsapp" viewBox="0 0 32 32">
      <path d="M27.281 4.65c-2.994-3-6.975-4.65-11.219-4.65-8.738 0-15.85 7.112-15.85 15.856 0 2.794 0.731 5.525 2.119 7.925l-2.25 8.219 8.406-2.206c2.319 1.262 4.925 1.931 7.575 1.931h0.006c0 0 0 0 0 0 8.738 0 15.856-7.113 15.856-15.856 0-4.238-1.65-8.219-4.644-11.219zM16.069 29.050v0c-2.369 0-4.688-0.637-6.713-1.837l-0.481-0.288-4.987 1.306 1.331-4.863-0.313-0.5c-1.325-2.094-2.019-4.519-2.019-7.012 0-7.269 5.912-13.181 13.188-13.181 3.519 0 6.831 1.375 9.319 3.862 2.488 2.494 3.856 5.8 3.856 9.325-0.006 7.275-5.919 13.188-13.181 13.188zM23.294 19.175c-0.394-0.2-2.344-1.156-2.706-1.288s-0.625-0.2-0.894 0.2c-0.262 0.394-1.025 1.288-1.256 1.556-0.231 0.262-0.462 0.3-0.856 0.1s-1.675-0.619-3.188-1.969c-1.175-1.050-1.975-2.35-2.206-2.744s-0.025-0.613 0.175-0.806c0.181-0.175 0.394-0.463 0.594-0.694s0.262-0.394 0.394-0.662c0.131-0.262 0.069-0.494-0.031-0.694s-0.894-2.15-1.219-2.944c-0.319-0.775-0.65-0.669-0.894-0.681-0.231-0.012-0.494-0.012-0.756-0.012s-0.694 0.1-1.056 0.494c-0.363 0.394-1.387 1.356-1.387 3.306s1.419 3.831 1.619 4.1c0.2 0.262 2.794 4.269 6.769 5.981 0.944 0.406 1.681 0.65 2.256 0.837 0.95 0.3 1.813 0.256 2.494 0.156 0.762-0.113 2.344-0.956 2.675-1.881s0.331-1.719 0.231-1.881c-0.094-0.175-0.356-0.275-0.756-0.475z"></path>
    </symbol>
    <symbol id="telegram" viewBox="0 0 32 32">
      <path d="M16 0c-8.838 0-16 7.162-16 16s7.162 16 16 16 16-7.163 16-16-7.163-16-16-16zM23.863 10.969l-2.625 12.369c-0.181 0.881-0.712 1.087-1.45 0.681l-4-2.956-1.919 1.869c-0.225 0.219-0.4 0.4-0.8 0.4-0.519 0-0.431-0.194-0.606-0.688l-1.363-4.475-3.956-1.231c-0.856-0.262-0.862-0.85 0.194-1.269l15.412-5.95c0.7-0.319 1.381 0.169 1.113 1.25z"></path>
    </symbol>
    <symbol id="skype" viewBox="0 0 32 32">
      <path d="M13.3 1.169c-0.050-0.031-0.106-0.056-0.156-0.081-0.056 0.012-0.106 0.019-0.162 0.031l0.319 0.050z"></path>
      <path d="M1.15 13.156c-0.012 0.056-0.019 0.113-0.025 0.162 0.031 0.050 0.050 0.1 0.081 0.15l-0.056-0.313z"></path>
      <path d="M30.837 18.831c0.012-0.056 0.019-0.113 0.031-0.169-0.031-0.050-0.050-0.1-0.081-0.15l0.050 0.319z"></path>
      <path d="M18.5 30.719c0.050 0.031 0.106 0.056 0.156 0.081 0.056-0.012 0.113-0.019 0.169-0.025l-0.325-0.056z"></path>
      <path d="M30.869 18.663c-0.012 0.056-0.019 0.113-0.031 0.169l-0.056-0.325c0.031 0.056 0.056 0.106 0.087 0.156 0.163-0.9 0.25-1.819 0.25-2.738 0-2.037-0.4-4.019-1.188-5.881-0.762-1.8-1.85-3.419-3.238-4.806s-3.006-2.475-4.8-3.237c-1.863-0.788-3.844-1.188-5.881-1.188-0.963 0-1.925 0.088-2.863 0.269 0 0-0.006 0-0.006 0 0.050 0.025 0.106 0.050 0.156 0.081l-0.319-0.050c0.056-0.012 0.106-0.019 0.162-0.031-1.287-0.681-2.731-1.050-4.194-1.050-2.388 0-4.638 0.931-6.325 2.619s-2.619 3.937-2.619 6.325c0 1.519 0.394 3.019 1.125 4.338 0.012-0.056 0.019-0.113 0.025-0.162l0.056 0.319c-0.031-0.050-0.056-0.1-0.081-0.15-0.15 0.856-0.225 1.731-0.225 2.606 0 2.038 0.4 4.019 1.188 5.881 0.763 1.8 1.85 3.413 3.237 4.8s3.006 2.475 4.806 3.238c1.863 0.788 3.844 1.188 5.881 1.188 0.887 0 1.775-0.081 2.644-0.238-0.050-0.031-0.1-0.056-0.156-0.081l0.325 0.056c-0.056 0.012-0.113 0.019-0.169 0.025 1.337 0.756 2.856 1.163 4.4 1.163 2.387 0 4.637-0.931 6.325-2.619s2.619-3.938 2.619-6.325c-0.006-1.519-0.4-3.019-1.137-4.35zM16.069 25.181c-5.369 0-7.769-2.637-7.769-4.619 0-1.012 0.75-1.725 1.781-1.725 2.3 0 1.7 3.3 5.988 3.3 2.194 0 3.406-1.194 3.406-2.413 0-0.731-0.363-1.544-1.806-1.9l-4.775-1.194c-3.844-0.963-4.544-3.044-4.544-5 0-4.056 3.819-5.581 7.406-5.581 3.306 0 7.2 1.825 7.2 4.263 0 1.044-0.906 1.65-1.938 1.65-1.962 0-1.6-2.713-5.55-2.713-1.963 0-3.044 0.887-3.044 2.156s1.55 1.675 2.894 1.981l3.538 0.787c3.869 0.863 4.85 3.125 4.85 5.25 0 3.294-2.531 5.756-7.637 5.756z"></path>
    </symbol>
    <symbol id="icon-bankrupt" viewBox="0 0 32 32">
      <path d="M5.662 1.144c-0.131 0.131-0.156 0.238-0.2 0.769-0.094 1.238 0.131 3.488 0.5 4.994 0.375 1.525 1.087 3.206 1.869 4.394 1.819 2.769 4.5 4.606 7.825 5.356 0.381 0.087 0.756 0.156 0.844 0.156 0.381 0.006 0.319 0.106-0.275 0.462-0.331 0.194-0.625 0.406-0.662 0.475-0.106 0.2-0.069 0.413 0.1 0.594 0.125 0.137 0.194 0.163 0.363 0.137 0.106-0.019 0.794-0.387 1.519-0.831 1.381-0.825 1.525-0.956 1.425-1.281-0.050-0.15-1.95-2.563-2.169-2.762-0.175-0.15-0.438-0.131-0.637 0.050-0.294 0.275-0.238 0.425 0.525 1.375 0.381 0.475 0.688 0.869 0.688 0.881 0 0.037-0.55-0.044-1.356-0.2-2.231-0.438-4.231-1.488-5.8-3.056-1.494-1.494-2.675-3.656-3.287-6.025-0.375-1.444-0.45-2.081-0.463-3.813-0.013-1.569-0.013-1.594-0.156-1.706-0.194-0.156-0.475-0.144-0.65 0.031z"></path>
      <path d="M3.9 10.088c-0.594 0.188-1.131 0.738-1.313 1.338-0.075 0.231-0.087 1.825-0.087 9.044 0 8.975 0 8.894 0.219 9.419 0.044 0.106-0.013 0.113-0.681 0.113-0.694 0-0.738 0.006-0.881 0.156-0.206 0.2-0.206 0.488 0 0.688l0.15 0.156h14.613c8.037 0 14.675-0.019 14.756-0.038 0.194-0.056 0.344-0.356 0.294-0.594-0.069-0.313-0.225-0.369-1.019-0.369-0.544 0-0.7-0.019-0.675-0.081 0.219-0.519 0.231-0.712 0.212-2.813l-0.019-2.087-0.219-0.431c-0.156-0.306-0.306-0.494-0.525-0.656-0.563-0.425-0.656-0.438-3.356-0.419l-2.4 0.019-0.313 0.15c-0.394 0.2-0.775 0.581-0.975 0.975-0.15 0.313-0.15 0.325-0.169 2.425-0.019 2.125-0.006 2.319 0.212 2.837 0.025 0.063-0.194 0.081-0.975 0.081s-1-0.019-0.975-0.081c0.225-0.544 0.231-0.587 0.212-5.056l-0.019-4.344-0.219-0.431c-0.156-0.306-0.306-0.494-0.525-0.656-0.563-0.425-0.656-0.438-3.356-0.419l-2.4 0.019-0.313 0.15c-0.394 0.2-0.775 0.581-0.975 0.975l-0.15 0.313-0.019 4.369c-0.019 4.494-0.012 4.538 0.213 5.081 0.025 0.063-0.194 0.081-0.975 0.081-0.944 0-1.012-0.006-0.969-0.113 0.219-0.525 0.219-0.506 0.219-7.806v-7.15l-0.156-0.15c-0.094-0.1-0.225-0.156-0.344-0.156s-0.25 0.056-0.344 0.156l-0.156 0.15v7.138c0 7.938 0.031 7.381-0.425 7.731l-0.219 0.169h-2.362c-2.288 0-2.362-0.006-2.531-0.131-0.094-0.069-0.231-0.206-0.3-0.3-0.131-0.169-0.131-0.181-0.131-9.038s0-8.869 0.131-9.037c0.306-0.412 0.369-0.431 1.619-0.463 1.013-0.025 1.156-0.044 1.275-0.15 0.2-0.181 0.181-0.55-0.031-0.719-0.156-0.125-0.244-0.131-1.269-0.125-0.713 0-1.194 0.031-1.356 0.081zM18.4 20.087c0.113 0.050 0.288 0.194 0.387 0.325l0.181 0.231 0.019 4.275c0.019 4.769 0.038 4.538-0.413 4.881l-0.219 0.169h-2.363c-2.287 0-2.363-0.006-2.531-0.131-0.094-0.069-0.231-0.206-0.3-0.3-0.131-0.169-0.131-0.244-0.15-4.369-0.012-2.313 0-4.288 0.019-4.4 0.044-0.25 0.306-0.569 0.563-0.681 0.281-0.125 4.513-0.125 4.806 0zM27.9 24.587c0.113 0.050 0.288 0.194 0.387 0.325l0.181 0.231v4.212l-0.169 0.219c-0.325 0.431-0.344 0.431-2.887 0.413-2.188-0.019-2.288-0.025-2.45-0.15-0.094-0.069-0.231-0.206-0.3-0.3-0.125-0.163-0.131-0.262-0.15-2.119-0.012-1.075 0-2.038 0.019-2.15 0.044-0.25 0.306-0.569 0.563-0.681 0.281-0.125 4.512-0.125 4.806 0z"></path>
      <path d="M24.613 11.063c-2.137 0.363-3.825 1.9-4.438 4.044-0.194 0.675-0.194 2.006 0 2.719 0.294 1.081 0.637 1.719 1.319 2.438 1.069 1.131 2.375 1.675 4.006 1.675 1.169 0 2.175-0.288 3.069-0.869 2.131-1.4 2.988-4.281 1.988-6.706-0.538-1.3-1.731-2.475-3.044-2.981-0.881-0.338-2.031-0.463-2.9-0.319zM26.613 12.156c1.45 0.338 2.625 1.406 3.106 2.831 0.444 1.325 0.325 2.637-0.35 3.775-1.306 2.219-4.175 2.9-6.319 1.494-0.863-0.563-1.512-1.419-1.85-2.431-0.225-0.663-0.231-1.806-0.025-2.531 0.288-1.012 0.85-1.85 1.6-2.387 1.131-0.806 2.462-1.069 3.837-0.75z"></path>
      <path d="M25.156 13.156c-0.125 0.125-0.156 0.213-0.156 0.488v0.344l-0.281 0.037c-1.137 0.175-1.606 1.694-0.775 2.531 0.344 0.344 0.706 0.444 1.569 0.444 0.637 0 0.688 0.006 0.831 0.156 0.169 0.163 0.194 0.319 0.087 0.55-0.119 0.256-0.3 0.294-1.5 0.294-1.113 0-1.125 0-1.275 0.156-0.206 0.2-0.206 0.488 0 0.688 0.137 0.144 0.2 0.156 0.75 0.156h0.594v0.344c0 0.531 0.294 0.775 0.706 0.587 0.194-0.087 0.294-0.3 0.294-0.644v-0.269l0.35-0.075c0.669-0.15 1.106-0.725 1.113-1.45 0-0.544-0.244-1-0.681-1.275-0.288-0.175-0.337-0.188-1.169-0.219-0.825-0.031-0.881-0.037-0.994-0.181-0.163-0.2-0.15-0.481 0.038-0.662 0.15-0.156 0.169-0.156 1.262-0.156 0.613 0 1.175-0.019 1.256-0.037 0.194-0.056 0.344-0.356 0.294-0.594-0.069-0.3-0.238-0.369-0.887-0.369h-0.581v-0.344c0-0.419-0.181-0.656-0.5-0.656-0.119 0-0.25 0.056-0.344 0.156z"></path>
    </symbol>
    <symbol id="icon-certificate" viewBox="0 0 32 32">
      <path d="M6.594 0.131c-0.206 0.069-0.513 0.238-0.688 0.369-0.169 0.137-1.438 1.375-2.819 2.763-2.138 2.144-2.531 2.575-2.688 2.894l-0.181 0.375-0.019 11.75c-0.013 12.975-0.044 12.075 0.381 12.694 0.287 0.419 0.744 0.756 1.231 0.9 0.4 0.125 0.569 0.125 11.188 0.113l10.781-0.019 0.387-0.181c0.431-0.194 0.925-0.669 1.131-1.075 0.244-0.481 0.35-1.512 0.194-1.863-0.144-0.319-0.644-0.344-0.8-0.044-0.038 0.069-0.069 0.306-0.069 0.538 0 0.644-0.1 0.944-0.431 1.288-0.194 0.194-0.375 0.319-0.544 0.363-0.188 0.050-3.306 0.063-10.912 0.056l-10.656-0.019-0.3-0.188c-0.225-0.137-0.356-0.281-0.481-0.525l-0.175-0.331v-23.106l2.331-0.019c2.081-0.019 2.35-0.031 2.575-0.131 0.287-0.131 0.606-0.419 0.8-0.731 0.131-0.213 0.138-0.287 0.169-2.625l0.031-2.406 8.181-0.019c5.781-0.006 8.256 0.006 8.438 0.056 0.356 0.094 0.806 0.569 0.9 0.95 0.050 0.2 0.075 1.275 0.075 3.538 0 3.175 0.006 3.262 0.125 3.381 0.188 0.188 0.519 0.169 0.681-0.037 0.131-0.162 0.131-0.225 0.131-3.406 0-3.356-0.019-3.663-0.262-4.144-0.206-0.406-0.7-0.881-1.131-1.075l-0.387-0.181-8.406-0.013c-8.344-0.013-8.406-0.013-8.781 0.113zM5.963 5.606c-0.194 0.306-0.375 0.331-2.35 0.331h-1.831l4.25-4.25 0.019 1.881c0.013 1.637 0 1.906-0.088 2.038z"></path>
      <path d="M10.369 3.394c-0.113 0.075-0.275 0.237-0.35 0.35-0.137 0.2-0.144 0.275-0.144 1.269 0 1.219 0.050 1.394 0.45 1.663 0.206 0.131 0.338 0.162 0.769 0.188 0.613 0.031 0.794 0 0.969-0.188 0.162-0.175 0.156-0.362 0-0.569-0.119-0.15-0.175-0.162-0.675-0.181l-0.544-0.019-0.019-0.862-0.019-0.856h9.825l-0.019 0.856-0.019 0.862-3.431 0.019c-3.425 0.013-3.438 0.013-3.581 0.15-0.238 0.219-0.181 0.556 0.113 0.706 0.15 0.081 0.713 0.094 3.544 0.094 2.344 0 3.431-0.019 3.581-0.069 0.256-0.088 0.581-0.381 0.681-0.619 0.044-0.112 0.063-0.537 0.050-1.237-0.019-1.163-0.044-1.237-0.45-1.538-0.169-0.131-0.231-0.131-5.344-0.15l-5.175-0.013-0.213 0.144z"></path>
      <path d="M24.387 10.419c-0.15 0.050-0.45 0.262-0.694 0.488-0.5 0.456-0.663 0.506-1.244 0.406-0.756-0.137-1.494 0.144-1.887 0.725-0.238 0.344-0.3 0.512-0.369 0.994-0.075 0.519-0.181 0.662-0.681 0.925-0.781 0.412-1.156 0.981-1.163 1.738 0 0.344 0.038 0.481 0.231 0.894 0.281 0.587 0.288 0.806 0.044 1.275-0.587 1.131-0.244 2.175 0.913 2.75 0.462 0.231 0.575 0.4 0.663 0.938 0.081 0.519 0.238 0.869 0.538 1.169 0.231 0.238 0.762 0.531 0.969 0.531 0.1 0 0.106 0.15 0.106 2.231 0 2.050 0.012 2.256 0.119 2.494 0.131 0.294 0.313 0.438 0.65 0.531 0.344 0.094 0.55 0.012 1.55-0.606 0.488-0.3 0.913-0.544 0.956-0.544 0.038 0 0.444 0.231 0.906 0.519 1.025 0.637 1.231 0.719 1.587 0.619 0.294-0.075 0.506-0.244 0.656-0.525 0.094-0.163 0.106-0.488 0.125-2.444l0.019-2.25 0.269-0.075c0.337-0.087 0.762-0.406 0.988-0.731 0.169-0.25 0.225-0.438 0.363-1.1 0.081-0.413 0.238-0.581 0.762-0.831 0.381-0.181 0.656-0.45 0.875-0.869 0.113-0.212 0.144-0.369 0.144-0.8 0-0.488-0.019-0.569-0.212-0.938-0.275-0.525-0.275-0.775 0-1.306 0.194-0.369 0.212-0.456 0.212-0.938 0-0.469-0.019-0.569-0.181-0.856-0.231-0.419-0.425-0.6-0.919-0.856-0.462-0.238-0.656-0.488-0.712-0.9-0.106-0.781-0.456-1.313-1.050-1.6-0.438-0.213-0.769-0.256-1.256-0.162-0.556 0.106-0.731 0.050-1.15-0.356-0.488-0.475-0.856-0.644-1.419-0.637-0.238 0-0.556 0.044-0.706 0.1zM25.85 11.631c0.519 0.481 0.869 0.644 1.4 0.644 0.225 0 0.55-0.019 0.719-0.050 0.569-0.088 0.981 0.281 1.063 0.944 0.087 0.756 0.45 1.25 1.163 1.613 0.469 0.238 0.625 0.431 0.669 0.831 0.025 0.231-0.006 0.35-0.212 0.744-0.219 0.425-0.238 0.512-0.238 0.938 0.006 0.406 0.031 0.512 0.231 0.9 0.4 0.762 0.288 1.181-0.419 1.563-0.762 0.413-1.1 0.875-1.194 1.631-0.056 0.469-0.219 0.719-0.575 0.875-0.262 0.113-0.319 0.119-0.65 0.050-0.731-0.156-1.4 0.044-1.9 0.563-0.319 0.331-0.525 0.438-0.844 0.438-0.331 0-0.462-0.069-0.856-0.469-0.45-0.456-0.887-0.625-1.488-0.563-0.712 0.075-0.969 0.056-1.144-0.075-0.281-0.206-0.394-0.419-0.45-0.85-0.106-0.744-0.456-1.238-1.087-1.544-0.444-0.206-0.556-0.313-0.694-0.65-0.125-0.288-0.087-0.494 0.181-1 0.169-0.331 0.194-0.431 0.194-0.881 0-0.444-0.025-0.556-0.2-0.913-0.262-0.531-0.288-0.631-0.212-0.912 0.081-0.3 0.3-0.506 0.769-0.731 0.594-0.281 0.944-0.787 1.050-1.519 0.056-0.438 0.169-0.644 0.462-0.856 0.144-0.106 0.244-0.125 0.556-0.106 0.925 0.056 1.194 0.037 1.506-0.119 0.175-0.081 0.438-0.281 0.594-0.444 0.375-0.375 0.475-0.425 0.869-0.431 0.319 0 0.344 0.012 0.738 0.381zM23.206 23.262c0.075 0.038 0.294 0.212 0.488 0.394 0.525 0.481 0.731 0.563 1.4 0.563 0.663 0 0.913-0.106 1.344-0.563 0.3-0.313 0.581-0.469 0.844-0.469h0.156v2.181c0 1.206-0.019 2.2-0.044 2.212-0.031 0.019-0.469-0.231-0.988-0.55-0.981-0.613-1.288-0.725-1.619-0.594-0.1 0.038-0.563 0.306-1.038 0.594-0.469 0.294-0.887 0.531-0.925 0.531-0.056 0-0.075-0.581-0.075-2.188v-2.188h0.163c0.087 0 0.219 0.031 0.294 0.075z"></path>
      <path d="M24.113 13.475c-0.744 0.175-1.631 0.756-2.106 1.369-0.575 0.744-0.837 1.512-0.837 2.438 0 1.094 0.356 1.938 1.175 2.756 0.55 0.556 1.106 0.881 1.844 1.063 0.556 0.137 1.569 0.094 2.125-0.094 1.194-0.406 2.106-1.356 2.538-2.631 0.156-0.456 0.163-1.694 0.012-2.156-0.456-1.406-1.488-2.412-2.831-2.75-0.456-0.119-1.438-0.113-1.919 0.006zM26.331 14.575c1.144 0.544 1.8 1.669 1.712 2.925-0.044 0.6-0.231 1.094-0.594 1.581-1.050 1.381-3.081 1.569-4.356 0.406-0.756-0.694-1.087-1.594-0.962-2.625 0.131-1.081 0.975-2.081 2.044-2.431 0.275-0.094 0.506-0.113 1.012-0.1 0.613 0.012 0.688 0.031 1.144 0.244z"></path>
      <path d="M3.819 11.537c-0.169 0.219-0.163 0.356 0.019 0.569l0.15 0.175 5.994 0.019c3.294 0.012 6.081 0 6.194-0.019 0.413-0.075 0.594-0.512 0.325-0.781-0.125-0.125-0.206-0.125-6.338-0.125h-6.219l-0.125 0.162z"></path>
      <path d="M3.956 14.7c-0.3 0.144-0.319 0.644-0.025 0.794 0.081 0.050 2.056 0.069 6.275 0.069h6.15l0.131-0.144c0.194-0.206 0.181-0.5-0.025-0.662-0.169-0.131-0.188-0.131-6.269-0.125-4.138 0-6.144 0.025-6.237 0.069z"></path>
      <path d="M3.919 18.006c-0.288 0.169-0.25 0.694 0.063 0.813 0.088 0.031 2.7 0.056 6.231 0.056 6.062 0 6.081 0 6.25-0.131 0.212-0.169 0.225-0.481 0.019-0.669l-0.144-0.137h-6.156c-4.181 0.006-6.188 0.025-6.263 0.069z"></path>
      <path d="M3.819 21.413c-0.169 0.219-0.163 0.356 0.019 0.569l0.15 0.175h12.4l0.119-0.15c0.156-0.188 0.15-0.475-0.006-0.631-0.125-0.125-0.206-0.125-6.338-0.125h-6.219l-0.125 0.163z"></path>
      <path d="M3.919 26.131c-0.288 0.169-0.256 0.656 0.056 0.8 0.113 0.050 1.081 0.069 3.238 0.069 3.025 0 3.088 0 3.25-0.131 0.206-0.163 0.225-0.494 0.037-0.681-0.119-0.119-0.206-0.125-3.294-0.125-2.1 0.006-3.212 0.025-3.288 0.069z"></path>
    </symbol>
    <symbol id="icon-fast-delivery" viewBox="0 0 32 32">
      <path d="M6.438 5.094c-2.331 0.531-3.938 2.519-3.938 4.875 0 1.55 0.675 2.944 1.894 3.919l0.306 0.238h-4.394l-0.15 0.156c-0.206 0.2-0.206 0.488 0 0.688l0.15 0.156h5.256v1h-1.031c-1.294 0-1.469 0.063-1.469 0.556 0 0.106 0.063 0.231 0.163 0.325 0.156 0.144 0.194 0.15 1.25 0.169l1.088 0.019v0.994h-5.256l-0.15 0.156c-0.206 0.2-0.206 0.488 0 0.688l0.15 0.156h5.256v2.231l-0.338 0.225c-0.412 0.275-0.731 0.656-0.95 1.137-0.138 0.3-0.175 0.488-0.2 1-0.025 0.569-0.013 0.637 0.112 0.794l0.131 0.175 2.381 0.012 2.381 0.019 0.075 0.262c0.169 0.563 0.787 1.3 1.319 1.569 0.881 0.45 1.95 0.425 2.787-0.069 0.512-0.3 1.069-1.038 1.262-1.688 0.031-0.1 0.319-0.106 4.906-0.106h4.869l0.1 0.288c0.219 0.637 0.775 1.294 1.356 1.587 1.137 0.581 2.538 0.325 3.381-0.619 0.219-0.244 0.506-0.769 0.637-1.144 0.031-0.1 0.137-0.113 1-0.113h0.969l0.125-0.163c0.131-0.163 0.131-0.225 0.131-3.144v-2.975l-0.887-1.375c-1.294-2-1.875-2.537-3.087-2.844-0.438-0.113-0.694-0.125-2.819-0.125h-2.331v-1.275c0-0.7-0.031-1.425-0.063-1.606-0.156-0.825-0.725-1.569-1.481-1.944l-0.425-0.206-8.55-0.063-0.106-0.394c-0.256-0.931-0.887-1.9-1.644-2.513-0.45-0.369-1.344-0.831-1.887-0.975-0.531-0.138-1.769-0.169-2.281-0.056zM8.631 6.188c1.25 0.419 2.194 1.356 2.594 2.581 0.244 0.731 0.244 1.669 0 2.4-0.631 1.931-2.606 3.088-4.569 2.675-1.338-0.281-2.487-1.3-2.95-2.625-0.15-0.438-0.169-0.594-0.169-1.25s0.019-0.813 0.169-1.238c0.463-1.319 1.594-2.338 2.919-2.638 0.55-0.125 1.481-0.081 2.006 0.094zM20.9 10.213c0.325 0.162 0.65 0.494 0.794 0.813 0.113 0.244 0.119 0.512 0.119 5.237v4.988h-15.188v-2.063h0.594c0.55 0 0.612-0.012 0.75-0.156 0.206-0.2 0.206-0.488 0-0.688-0.138-0.144-0.2-0.156-0.75-0.156h-0.594v-1h1.769c1.556 0 1.787-0.012 1.975-0.113 0.269-0.131 0.363-0.375 0.244-0.619-0.15-0.313-0.25-0.331-2.188-0.331h-1.8v-1h3.369c3.306 0 3.369 0 3.531-0.131 0.219-0.169 0.225-0.537 0.019-0.731-0.137-0.131-0.2-0.137-1.719-0.15l-1.575-0.019 0.35-0.275c0.963-0.75 1.669-2.063 1.813-3.369l0.044-0.387 4.1 0.012c3.913 0.019 4.113 0.025 4.344 0.137zM27.637 15.194c0.975 0.206 1.4 0.594 2.512 2.294l0.85 1.306v4.956h-1.175l-0.038-0.206c-0.106-0.581-0.644-1.356-1.194-1.725-1.087-0.738-2.581-0.594-3.512 0.337-0.337 0.337-0.675 0.931-0.756 1.331l-0.050 0.231-1.4 0.038v-8.631h2.219c1.387 0 2.337 0.025 2.544 0.069zM9.688 22.281c0 0.019-0.081 0.15-0.188 0.288-0.194 0.275-0.438 0.856-0.438 1.056 0 0.119-0.056 0.125-2 0.125-1.1 0-2-0.025-2-0.050 0-0.031 0.044-0.194 0.094-0.363 0.119-0.413 0.419-0.756 0.806-0.938 0.313-0.144 0.362-0.15 2.025-0.15 0.931 0 1.7 0.012 1.7 0.031zM21.813 23v0.75h-7.238l-0.044-0.238c-0.056-0.331-0.256-0.756-0.475-1.031l-0.188-0.231h7.944v0.75zM12.619 22.569c0.619 0.306 0.956 0.856 0.963 1.556 0.006 0.544-0.188 0.975-0.594 1.344-0.675 0.606-1.65 0.619-2.325 0.025-0.431-0.381-0.625-0.794-0.625-1.337 0.006-0.738 0.331-1.269 0.975-1.587 0.544-0.275 1.063-0.275 1.606 0zM27.781 22.525c0.387 0.175 0.788 0.606 0.938 0.994 0.137 0.356 0.106 1.094-0.056 1.4-0.169 0.337-0.475 0.644-0.813 0.819-0.262 0.137-0.4 0.169-0.788 0.169-0.556 0-0.906-0.144-1.275-0.506-0.369-0.369-0.506-0.719-0.5-1.275 0-0.4 0.025-0.519 0.181-0.806 0.206-0.375 0.581-0.712 0.944-0.844 0.394-0.144 1-0.125 1.369 0.050z"></path>
      <path d="M7.281 7.406c-0.156 0.15-0.156 0.162-0.156 1.262v1.113l-0.563 0.775c-0.612 0.838-0.688 1.069-0.438 1.319 0.162 0.162 0.5 0.188 0.669 0.050 0.081-0.063 1.125-1.488 1.25-1.7 0.056-0.094 0.075-0.519 0.081-1.4 0-1.263 0-1.269-0.156-1.419-0.094-0.1-0.225-0.156-0.344-0.156s-0.25 0.056-0.344 0.156z"></path>
      <path d="M25.587 15.769l-0.181 0.156-0.019 1.869c-0.012 1.025 0 1.925 0.019 2.006 0.019 0.075 0.087 0.194 0.156 0.262 0.119 0.119 0.219 0.125 2.081 0.125 1.825 0 1.962-0.006 2.15-0.125 0.281-0.169 0.413-0.456 0.375-0.806-0.019-0.219-0.194-0.575-0.706-1.475-0.769-1.337-1.019-1.637-1.637-1.925-0.387-0.181-0.475-0.2-1.238-0.219-0.8-0.025-0.819-0.025-1 0.131zM27.538 16.844c0.137 0.081 0.281 0.188 0.319 0.231 0.075 0.087 1.206 2.050 1.206 2.087 0 0.012-0.587 0.025-1.313 0.025h-1.313v-2.581l0.425 0.044c0.262 0.031 0.512 0.1 0.675 0.194z"></path>
      <path d="M11.456 23.406c-0.4 0.175-0.581 0.769-0.356 1.156 0.319 0.531 1.169 0.512 1.431-0.038 0.206-0.438 0.031-0.95-0.375-1.125-0.269-0.106-0.444-0.106-0.7 0.006z"></path>
      <path d="M26.644 23.438c-0.269 0.163-0.4 0.381-0.406 0.669-0.006 0.5 0.337 0.85 0.837 0.85 0.281 0 0.512-0.144 0.675-0.413 0.156-0.25 0.156-0.512 0.012-0.788-0.219-0.406-0.738-0.556-1.119-0.319z"></path>
    </symbol>
    <symbol id="icon-quality-control" viewBox="0 0 32 32">
      <path d="M14.969 0.319c-1.869 0.781-4.762 1.462-8.531 2.019-0.569 0.081-1.106 0.181-1.2 0.219-0.25 0.094-0.662 0.494-0.819 0.781-0.138 0.256-0.138 0.275-0.156 4.644l-0.019 4.394-0.231 0.119c-0.288 0.144-0.456 0.331-0.644 0.694-0.131 0.256-0.15 0.381-0.169 1.256l-0.025 0.981-1.131 0.025c-1.025 0.025-1.163 0.037-1.4 0.162-0.4 0.213-0.613 0.562-0.613 1.037 0 0.369 0.019 0.425 0.463 1.163 0.256 0.431 0.469 0.8 0.481 0.819 0.012 0.025-0.188 0.394-0.444 0.825-0.325 0.544-0.481 0.881-0.512 1.075-0.075 0.55 0.306 1.131 0.838 1.275 0.137 0.044 0.963 0.069 1.988 0.069h1.75l0.181 0.575c0.35 1.169 1.188 2.688 2.088 3.806 0.556 0.688 1.831 1.9 2.662 2.525 1.438 1.075 3.319 2.125 5.050 2.813 1.338 0.525 1.519 0.525 2.944-0.044 3.569-1.419 6.644-3.738 8.331-6.269 0.55-0.825 1.137-2.031 1.375-2.825l0.181-0.581h1.75c1.025 0 1.85-0.025 1.988-0.069 0.531-0.144 0.912-0.725 0.837-1.275-0.031-0.194-0.188-0.531-0.512-1.075-0.256-0.431-0.456-0.8-0.444-0.825 0.012-0.019 0.225-0.387 0.481-0.819 0.438-0.738 0.462-0.794 0.462-1.156 0-0.475-0.206-0.831-0.613-1.044-0.238-0.125-0.375-0.137-1.4-0.162l-1.131-0.025-0.025-0.981c-0.019-0.875-0.038-1-0.169-1.256-0.188-0.369-0.356-0.55-0.644-0.694l-0.238-0.119v-4.237c0-4.731 0.006-4.675-0.419-5.144-0.356-0.394-0.613-0.494-1.762-0.656-3.75-0.544-6.637-1.231-8.613-2.050-0.906-0.369-1.031-0.369-1.988 0.031zM16.725 1.35c1.75 0.731 4.544 1.406 8.106 1.956 1.325 0.2 1.575 0.256 1.688 0.375l0.137 0.138 0.019 4.212 0.012 4.219h-1.063v-3.394c0-1.862-0.031-3.5-0.063-3.631-0.031-0.138-0.106-0.319-0.175-0.406-0.244-0.331-0.45-0.412-1.55-0.594-2.831-0.462-5.469-1.1-7.038-1.7-0.306-0.119-0.669-0.212-0.8-0.212s-0.494 0.1-0.8 0.219c-1.525 0.587-4.5 1.3-7.194 1.725-0.931 0.144-1.156 0.237-1.394 0.563-0.069 0.088-0.144 0.269-0.175 0.406-0.031 0.131-0.063 1.769-0.063 3.631v3.394h-1.063l0.013-4.225 0.019-4.225 0.162-0.138c0.131-0.112 0.325-0.163 0.969-0.25 3.356-0.462 6.856-1.275 8.619-2 0.45-0.188 0.844-0.337 0.881-0.344s0.375 0.119 0.75 0.281zM16.681 3.619c1.531 0.563 4.294 1.225 6.788 1.625 0.45 0.075 0.875 0.15 0.956 0.162l0.137 0.031v6.813h-17.125v-6.813l0.138-0.025c0.081-0.019 0.437-0.075 0.8-0.138 1.144-0.175 3.4-0.638 4.519-0.925 1-0.263 2.706-0.794 2.919-0.919 0.137-0.081 0.15-0.075 0.869 0.188zM27.406 13.387c0.331 0.15 0.344 0.231 0.344 2.613s-0.012 2.462-0.344 2.613c-0.238 0.106-22.575 0.106-22.813 0-0.331-0.15-0.344-0.231-0.344-2.606 0-1.238 0.025-2.256 0.063-2.344 0.138-0.369-0.625-0.344 11.669-0.35 8.606 0 11.3 0.019 11.425 0.075zM3.188 17.431c0 1.056 0.094 1.413 0.469 1.788 0.138 0.137 0.344 0.3 0.456 0.356 0.181 0.094 0.2 0.137 0.2 0.381 0 0.15 0.019 0.406 0.037 0.569l0.044 0.288h-1.638c-1.325 0-1.644-0.019-1.669-0.087-0.019-0.044 0.163-0.406 0.4-0.8 0.725-1.2 0.725-1.294 0.038-2.456-0.256-0.431-0.45-0.813-0.431-0.844 0.025-0.038 0.462-0.063 1.069-0.063h1.025v0.869zM30.906 16.625c0.019 0.031-0.175 0.413-0.431 0.844-0.688 1.163-0.688 1.256 0.038 2.456 0.238 0.394 0.419 0.756 0.4 0.8-0.025 0.069-0.344 0.087-1.669 0.087h-1.637l0.044-0.288c0.019-0.163 0.038-0.419 0.038-0.569 0-0.244 0.025-0.288 0.194-0.381 0.35-0.188 0.556-0.4 0.731-0.725 0.156-0.3 0.169-0.381 0.188-1.306l0.025-0.981h1.019c0.6 0 1.038 0.025 1.063 0.063zM6.469 20.2c0.1 1.044 0.563 2.413 1.144 3.406 1.369 2.337 4.106 4.494 7.481 5.894 0.8 0.331 1.012 0.331 1.75 0.031 2.8-1.15 5.181-2.825 6.681-4.694 1.137-1.425 1.856-3.081 2.006-4.637l0.050-0.45h1.063l-0.038 0.462c-0.337 3.988-3.563 7.712-8.637 9.981-0.512 0.231-1.169 0.5-1.45 0.6l-0.519 0.175-0.512-0.175c-0.725-0.25-2.056-0.85-2.875-1.3-3.887-2.113-6.344-4.975-7.044-8.206-0.075-0.331-0.15-0.819-0.175-1.075l-0.037-0.462h1.063l0.050 0.45zM24.5 19.913c0 0.344-0.269 1.456-0.481 1.994-0.775 1.969-2.425 3.775-4.738 5.188-0.681 0.419-2.075 1.131-2.8 1.438l-0.425 0.181-0.356-0.125c-0.512-0.169-2.063-0.938-2.825-1.4-0.981-0.587-2.012-1.387-2.75-2.125-1.025-1.019-1.662-1.95-2.119-3.1-0.231-0.581-0.506-1.688-0.506-2.050v-0.163h17v0.163z"></path>
      <path d="M18.375 5.975c-0.087 0.056-1.019 0.963-2.075 2.013l-1.919 1.913-0.438-0.419c-0.5-0.481-0.662-0.525-0.95-0.238-0.125 0.131-0.181 0.244-0.181 0.387 0 0.181 0.094 0.3 0.675 0.881 1.006 1.006 0.675 1.162 3.431-1.594 2.119-2.119 2.269-2.281 2.269-2.481-0.006-0.45-0.45-0.7-0.813-0.463z"></path>
      <path d="M11.512 14.469c-0.344 0.15-0.412 0.569-0.137 0.844 0.125 0.125 0.225 0.125 4.625 0.125s4.5 0 4.625-0.125c0.281-0.281 0.206-0.7-0.156-0.844-0.319-0.137-8.644-0.131-8.956 0z"></path>
      <path d="M12.944 16.725c-0.175 0.219-0.162 0.481 0.019 0.694l0.15 0.175h5.775l0.15-0.175c0.181-0.212 0.194-0.475 0.019-0.694l-0.125-0.163h-5.863l-0.125 0.163z"></path>
    </symbol>
  </defs>
</svg>