<?xml version="1.0" standalone="no"?>
<!DOCTYPE svg PUBLIC "-//W3C//DTD SVG 20010904//EN"
 "http://www.w3.org/TR/2001/REC-SVG-20010904/DTD/svg10.dtd">
<svg version="1.0" xmlns="http://www.w3.org/2000/svg"
 width="512.000000pt" height="512.000000pt" viewBox="0 0 512.000000 512.000000"
 preserveAspectRatio="xMidYMid meet">

<g transform="translate(0.000000,512.000000) scale(0.100000,-0.100000)"
fill="#000000" stroke="none">
<path d="M2395 5069 c-299 -125 -762 -234 -1365 -323 -91 -13 -177 -29 -192
-35 -40 -15 -106 -79 -131 -125 -22 -41 -22 -44 -25 -743 l-3 -703 -37 -19
c-46 -23 -73 -53 -103 -111 -21 -41 -24 -61 -27 -201 l-4 -157 -181 -4 c-164
-4 -186 -6 -224 -26 -64 -34 -98 -90 -98 -166 0 -59 3 -68 74 -186 41 -69 75
-128 77 -131 2 -4 -30 -63 -71 -132 -52 -87 -77 -141 -82 -172 -12 -88 49
-181 134 -204 22 -7 154 -11 318 -11 l280 0 29 -92 c56 -187 190 -430 334
-609 89 -110 293 -304 426 -404 230 -172 531 -340 808 -450 214 -84 243 -84
471 7 571 227 1063 598 1333 1003 88 132 182 325 220 452 l29 93 280 0 c164 0
296 4 318 11 85 23 146 116 134 204 -5 31 -30 85 -82 172 -41 69 -73 128 -71
132 2 3 36 62 77 131 70 118 74 127 74 185 0 76 -33 133 -98 167 -38 20 -60
22 -224 26 l-181 4 -4 157 c-3 140 -6 160 -27 201 -30 59 -57 88 -103 111
l-38 19 0 678 c0 757 1 748 -67 823 -57 63 -98 79 -282 105 -600 87 -1062 197
-1378 328 -145 59 -165 59 -318 -5z m281 -165 c280 -117 727 -225 1297 -313
212 -32 252 -41 270 -60 l22 -22 3 -674 2 -675 -85 0 -85 0 0 543 c0 298 -5
560 -10 581 -5 22 -17 51 -28 65 -39 53 -72 66 -248 95 -453 74 -875 176
-1126 272 -49 19 -107 34 -128 34 -21 0 -79 -16 -128 -35 -244 -94 -720 -208
-1151 -276 -149 -23 -185 -38 -223 -90 -11 -14 -23 -43 -28 -65 -5 -21 -10
-283 -10 -581 l0 -543 -85 0 -85 0 2 676 3 676 26 22 c21 18 52 26 155 40 537
74 1097 204 1379 320 72 30 135 54 141 55 6 1 60 -19 120 -45z m-7 -363 c245
-90 687 -196 1086 -260 72 -12 140 -24 153 -26 l22 -5 0 -545 0 -545 -1370 0
-1370 0 0 545 0 545 22 4 c13 3 70 12 128 22 183 28 544 102 723 148 160 42
433 127 467 147 22 13 24 12 139 -30z m1716 -1563 c53 -24 55 -37 55 -418 0
-381 -2 -394 -55 -418 -38 -17 -3612 -17 -3650 0 -53 24 -55 37 -55 417 0 198
4 361 10 375 22 59 -100 55 1867 56 1377 0 1808 -3 1828 -12z m-3875 -647 c0
-169 15 -226 75 -286 22 -22 55 -48 73 -57 29 -15 32 -22 32 -61 0 -24 3 -65
6 -91 l7 -46 -262 0 c-212 0 -263 3 -267 14 -3 7 26 65 64 128 116 192 116
207 6 393 -41 69 -72 130 -69 135 4 6 74 10 171 10 l164 0 0 -139z m4435 129
c3 -5 -28 -66 -69 -135 -110 -186 -110 -201 6 -393 38 -63 67 -121 64 -128 -4
-11 -55 -14 -267 -14 l-262 0 7 46 c3 26 6 67 6 91 0 39 4 46 31 61 56 30 89
64 117 116 25 48 27 61 30 209 l4 157 163 0 c96 0 166 -4 170 -10z m-3910
-572 c16 -167 90 -386 183 -545 219 -374 657 -719 1197 -943 128 -53 162 -53
280 -5 448 184 829 452 1069 751 182 228 297 493 321 742 l8 72 85 0 85 0 -6
-74 c-54 -638 -570 -1234 -1382 -1597 -82 -37 -187 -80 -232 -96 l-83 -28 -82
28 c-116 40 -329 136 -460 208 -622 338 -1015 796 -1127 1313 -12 53 -24 131
-28 172 l-6 74 85 0 85 0 8 -72z m2885 46 c0 -55 -43 -233 -77 -319 -124 -315
-388 -604 -758 -830 -109 -67 -332 -181 -448 -230 l-68 -29 -57 20 c-82 27
-330 150 -452 224 -157 94 -322 222 -440 340 -164 163 -266 312 -339 496 -37
93 -81 270 -81 328 l0 26 1360 0 1360 0 0 -26z"/>
<path d="M2940 4164 c-14 -9 -163 -154 -332 -322 l-307 -306 -70 67 c-80 77
-106 84 -152 38 -20 -21 -29 -39 -29 -62 0 -29 15 -48 108 -141 161 -161 108
-186 549 255 339 339 363 365 363 397 -1 72 -72 112 -130 74z"/>
<path d="M1842 2805 c-55 -24 -66 -91 -22 -135 20 -20 36 -20 740 -20 704 0
720 0 740 20 45 45 33 112 -25 135 -51 22 -1383 21 -1433 0z"/>
<path d="M2071 2444 c-28 -35 -26 -77 3 -111 l24 -28 462 0 462 0 24 28 c29
34 31 76 3 111 l-20 26 -469 0 -469 0 -20 -26z"/>
</g>
</svg>
